<?xml version="1.0" encoding="utf-8"?>
<!-- Generator: Adobe Illustrator 16.0.4, SVG Export Plug-In . SVG Version: 6.00 Build 0)  -->
<!DOCTYPE svg PUBLIC "-//W3C//DTD SVG 1.1//EN" "http://www.w3.org/Graphics/SVG/1.1/DTD/svg11.dtd">
<svg version="1.1" id="Layer_1" xmlns="http://www.w3.org/2000/svg" xmlns:xlink="http://www.w3.org/1999/xlink" x="0px" y="0px"
	 width="334px" height="87px" viewBox="0 0 334 87" enable-background="new 0 0 334 87" xml:space="preserve">
<rect y="-0.325" opacity="0.8" fill="#1B75BB" enable-background="new    " width="334" height="87.325"/>
<g>
	<path fill="#FFFFFF" d="M139.014,37.293c-0.326-0.515-0.725-0.969-1.201-1.359c-0.482-0.39-1.025-0.691-1.633-0.909
		c-0.604-0.218-1.238-0.325-1.902-0.325c-1.211,0-2.241,0.237-3.086,0.705c-0.854,0.469-1.535,1.1-2.063,1.888
		c-0.524,0.789-0.903,1.684-1.146,2.691c-0.242,1.007-0.362,2.05-0.362,3.122c0,1.034,0.121,2.032,0.362,3
		c0.24,0.979,0.621,1.852,1.146,2.631c0.529,0.773,1.211,1.4,2.063,1.869c0.845,0.469,1.875,0.704,3.086,0.704
		c1.646,0,2.932-0.505,3.859-1.507c0.928-1.011,1.494-2.338,1.702-3.984h5.214c-0.134,1.53-0.492,2.918-1.062,4.151
		c-0.576,1.234-1.327,2.292-2.269,3.154c-0.938,0.873-2.033,1.536-3.295,1.989c-1.262,0.459-2.64,0.691-4.152,0.691
		c-1.879,0-3.562-0.33-5.065-0.979c-1.494-0.654-2.76-1.549-3.79-2.695c-1.029-1.146-1.818-2.486-2.365-4.031
		c-0.553-1.545-0.826-3.21-0.826-4.996c0-1.828,0.272-3.526,0.826-5.094c0.547-1.568,1.336-2.937,2.365-4.101
		c1.03-1.169,2.296-2.083,3.79-2.746c1.503-0.664,3.187-0.998,5.065-0.998c1.351,0,2.625,0.195,3.824,0.584
		c1.205,0.39,2.281,0.96,3.229,1.698c0.951,0.747,1.73,1.67,2.352,2.765c0.617,1.1,1.008,2.357,1.17,3.776h-5.22
		C139.537,38.374,139.333,37.803,139.014,37.293z"/>
	<path fill="#FFFFFF" d="M153.223,30.752V55.26h-4.871V30.752H153.223z"/>
	<path fill="#FFFFFF" d="M157.166,42.544c0.436-1.16,1.053-2.139,1.855-2.955c0.802-0.812,1.763-1.438,2.881-1.883
		c1.123-0.45,2.38-0.673,3.775-0.673c1.396,0,2.658,0.223,3.795,0.673c1.133,0.445,2.098,1.072,2.899,1.883
		c0.798,0.816,1.415,1.795,1.851,2.955c0.438,1.15,0.654,2.439,0.654,3.859s-0.218,2.701-0.654,3.842
		c-0.436,1.146-1.053,2.125-1.851,2.937c-0.804,0.812-1.769,1.435-2.899,1.87c-1.137,0.436-2.397,0.648-3.795,0.648
		c-1.396,0-2.652-0.213-3.775-0.648c-1.118-0.436-2.079-1.059-2.881-1.87c-0.804-0.812-1.42-1.791-1.855-2.937
		c-0.432-1.141-0.654-2.422-0.654-3.842S156.734,43.694,157.166,42.544z M161.596,48.478c0.135,0.672,0.371,1.285,0.7,1.823
		c0.334,0.534,0.774,0.965,1.322,1.285c0.547,0.319,1.239,0.478,2.06,0.478c0.821,0,1.518-0.158,2.078-0.478
		c0.562-0.32,1.002-0.751,1.336-1.285c0.33-0.538,0.566-1.149,0.705-1.823c0.135-0.673,0.204-1.363,0.204-2.074
		c0-0.709-0.069-1.405-0.204-2.097c-0.139-0.687-0.375-1.29-0.705-1.818c-0.334-0.52-0.773-0.951-1.336-1.285
		c-0.561-0.329-1.257-0.496-2.078-0.496c-0.82,0-1.512,0.167-2.06,0.496c-0.548,0.334-0.988,0.766-1.322,1.285
		c-0.329,0.529-0.565,1.132-0.7,1.818c-0.139,0.691-0.209,1.388-0.209,2.097S161.457,47.805,161.596,48.478z"/>
	<path fill="#FFFFFF" d="M182.133,50.848c0.223,0.376,0.496,0.683,0.844,0.923c0.344,0.241,0.738,0.422,1.185,0.534
		c0.444,0.116,0.909,0.171,1.392,0.171c0.344,0,0.705-0.042,1.076-0.121c0.376-0.078,0.725-0.203,1.034-0.375
		c0.307-0.172,0.562-0.398,0.771-0.688c0.205-0.283,0.312-0.645,0.312-1.081c0-0.733-0.492-1.281-1.461-1.652
		c-0.976-0.36-2.329-0.728-4.068-1.095c-0.706-0.158-1.401-0.348-2.073-0.566c-0.678-0.213-1.275-0.5-1.806-0.857
		c-0.524-0.357-0.951-0.803-1.271-1.342c-0.315-0.537-0.479-1.191-0.479-1.972c0-1.146,0.224-2.078,0.673-2.816
		c0.44-0.728,1.03-1.303,1.764-1.73c0.737-0.422,1.559-0.724,2.473-0.891c0.914-0.171,1.852-0.26,2.816-0.26
		c0.955,0,1.888,0.093,2.791,0.274c0.905,0.181,1.713,0.496,2.422,0.928c0.711,0.436,1.3,1.011,1.769,1.735
		c0.47,0.719,0.747,1.628,0.84,2.728h-4.63c-0.068-0.938-0.427-1.577-1.066-1.902c-0.641-0.338-1.396-0.501-2.265-0.501
		c-0.272,0-0.569,0.019-0.896,0.051c-0.315,0.032-0.607,0.106-0.873,0.223c-0.264,0.116-0.486,0.278-0.668,0.501
		c-0.186,0.213-0.272,0.51-0.272,0.872c0,0.436,0.157,0.789,0.481,1.067c0.315,0.274,0.738,0.492,1.248,0.668
		c0.516,0.167,1.104,0.325,1.769,0.464c0.663,0.135,1.341,0.283,2.022,0.445c0.713,0.158,1.399,0.353,2.078,0.58
		c0.678,0.232,1.274,0.533,1.805,0.908c0.523,0.381,0.945,0.85,1.267,1.41c0.32,0.562,0.481,1.254,0.481,2.079
		c0,1.165-0.235,2.144-0.704,2.933c-0.47,0.783-1.076,1.424-1.837,1.906c-0.752,0.479-1.619,0.816-2.59,1.012
		c-0.975,0.195-1.961,0.287-2.969,0.287c-1.029,0-2.037-0.102-3.021-0.306c-0.988-0.204-1.854-0.552-2.625-1.024
		c-0.767-0.487-1.396-1.123-1.89-1.907c-0.49-0.789-0.761-1.782-0.807-2.974h4.639C181.812,50.018,181.919,50.467,182.133,50.848z"
		/>
	<path fill="#FFFFFF" d="M201.677,51.001c0.732,0.71,1.781,1.062,3.159,1.062c0.982,0,1.828-0.242,2.537-0.738
		c0.715-0.492,1.146-1.012,1.304-1.56h4.291c-0.687,2.125-1.739,3.646-3.153,4.565c-1.42,0.914-3.137,1.367-5.149,1.367
		c-1.396,0-2.653-0.223-3.776-0.668c-1.121-0.444-2.072-1.08-2.848-1.906c-0.779-0.821-1.378-1.801-1.8-2.946
		c-0.429-1.149-0.636-2.403-0.636-3.776c0-1.326,0.213-2.564,0.648-3.707c0.436-1.146,1.053-2.134,1.855-2.969
		c0.802-0.835,1.754-1.494,2.861-1.976c1.113-0.478,2.344-0.719,3.692-0.719c1.513,0,2.825,0.292,3.942,0.877
		c1.123,0.584,2.047,1.364,2.766,2.347c0.725,0.988,1.243,2.111,1.559,3.363c0.325,1.262,0.438,2.575,0.35,3.948h-12.801
		C200.545,49.149,200.948,50.291,201.677,51.001z M207.188,41.663c-0.584-0.635-1.475-0.956-2.662-0.956
		c-0.774,0-1.424,0.13-1.935,0.395c-0.516,0.264-0.928,0.589-1.243,0.979c-0.307,0.39-0.52,0.798-0.648,1.234
		c-0.126,0.436-0.2,0.826-0.219,1.165h7.924C208.171,43.249,207.771,42.308,207.188,41.663z"/>
</g>
</svg>
