<?xml version="1.0" encoding="utf-8"?>
<!-- Generator: Adobe Illustrator 16.0.4, SVG Export Plug-In . SVG Version: 6.00 Build 0)  -->
<!DOCTYPE svg PUBLIC "-//W3C//DTD SVG 1.1//EN" "http://www.w3.org/Graphics/SVG/1.1/DTD/svg11.dtd">
<svg version="1.1" id="Layer_1" xmlns="http://www.w3.org/2000/svg" xmlns:xlink="http://www.w3.org/1999/xlink" x="0px" y="0px"
	 width="334px" height="87px" viewBox="0 0 334 87" enable-background="new 0 0 334 87" xml:space="preserve">
<rect x="0.621" y="-0.697" opacity="0.8" fill="#1B75BB" enable-background="new    " width="332.758" height="87"/>
<g>
	<path fill="#FFFFFF" d="M120.141,36.78c-0.314-0.513-0.717-0.966-1.197-1.354c-0.481-0.388-1.021-0.688-1.623-0.906
		c-0.605-0.217-1.238-0.323-1.899-0.323c-1.206,0-2.237,0.235-3.078,0.702c-0.841,0.467-1.524,1.096-2.047,1.881
		c-0.531,0.786-0.911,1.678-1.146,2.681c-0.242,1.003-0.361,2.043-0.361,3.111c0,1.031,0.119,2.023,0.361,2.99
		c0.234,0.975,0.615,1.844,1.146,2.621c0.522,0.771,1.207,1.396,2.047,1.861c0.841,0.467,1.872,0.703,3.078,0.703
		c1.646,0,2.926-0.504,3.851-1.502c0.918-1.007,1.487-2.329,1.687-3.971h5.198c-0.139,1.525-0.489,2.908-1.057,4.138
		c-0.574,1.229-1.322,2.282-2.261,3.144c-0.935,0.868-2.028,1.529-3.28,1.981c-1.248,0.458-2.636,0.688-4.138,0.688
		c-1.867,0-3.549-0.328-5.042-0.975c-1.493-0.652-2.754-1.544-3.779-2.686c-1.027-1.143-1.812-2.478-2.357-4.017
		s-0.818-3.198-0.818-4.978c0-1.821,0.273-3.513,0.818-5.075s1.33-2.926,2.357-4.086c1.025-1.165,2.287-2.075,3.779-2.736
		c1.493-0.661,3.175-0.994,5.042-0.994c1.345,0,2.616,0.194,3.813,0.582c1.196,0.389,2.27,0.957,3.211,1.692
		c0.947,0.744,1.733,1.664,2.344,2.754c0.615,1.095,1.003,2.348,1.165,3.762h-5.195C120.667,37.857,120.459,37.289,120.141,36.78z"
		/>
	<path fill="#FFFFFF" d="M129.406,42.012c0.435-1.155,1.049-2.13,1.844-2.944c0.8-0.809,1.756-1.433,2.875-1.876
		c1.119-0.448,2.371-0.67,3.762-0.67c1.387,0,2.653,0.222,3.776,0.67c1.128,0.444,2.094,1.068,2.889,1.876
		c0.8,0.813,1.415,1.789,1.849,2.944c0.431,1.146,0.647,2.431,0.647,3.845s-0.217,2.689-0.647,3.826
		c-0.434,1.143-1.049,2.117-1.849,2.926c-0.795,0.81-1.761,1.429-2.889,1.863c-1.123,0.435-2.39,0.646-3.776,0.646
		c-1.391,0-2.645-0.212-3.762-0.646c-1.118-0.436-2.075-1.055-2.875-1.863c-0.795-0.809-1.41-1.783-1.844-2.926
		c-0.435-1.137-0.647-2.412-0.647-3.826S128.972,43.159,129.406,42.012z M133.816,47.924c0.139,0.67,0.369,1.28,0.703,1.816
		c0.327,0.531,0.771,0.961,1.316,1.279c0.545,0.319,1.229,0.477,2.052,0.477s1.507-0.157,2.066-0.477
		c0.56-0.318,1.003-0.748,1.331-1.279c0.337-0.536,0.568-1.146,0.703-1.816c0.139-0.67,0.207-1.359,0.207-2.066
		s-0.068-1.399-0.207-2.088c-0.135-0.684-0.365-1.285-0.703-1.812c-0.328-0.518-0.771-0.948-1.331-1.28
		c-0.56-0.328-1.243-0.495-2.066-0.495s-1.506,0.167-2.052,0.495c-0.545,0.333-0.989,0.763-1.316,1.28
		c-0.334,0.527-0.564,1.127-0.703,1.812c-0.135,0.688-0.203,1.381-0.203,2.088C133.611,46.564,133.682,47.253,133.816,47.924z"/>
	<path fill="#FFFFFF" d="M154.809,37.002v2.458h0.105c0.615-1.021,1.41-1.77,2.395-2.237c0.979-0.467,1.982-0.703,3.008-0.703
		c1.299,0,2.361,0.176,3.192,0.532c0.838,0.351,1.488,0.846,1.97,1.47c0.477,0.628,0.813,1.391,1.008,2.288
		c0.194,0.906,0.287,1.904,0.287,2.995V54.68h-4.854v-9.982c0-1.465-0.228-2.551-0.679-3.268c-0.459-0.721-1.271-1.077-2.432-1.077
		c-1.322,0-2.279,0.388-2.871,1.179c-0.596,0.786-0.892,2.08-0.892,3.877v9.271h-4.853V37.002H154.809z"/>
	<path fill="#FFFFFF" d="M168.622,40.247v-3.245h2.907v-1.368c0-1.571,0.49-2.861,1.47-3.869c0.979-0.998,2.464-1.502,4.446-1.502
		c0.43,0,0.863,0.019,1.299,0.056c0.434,0.032,0.854,0.06,1.266,0.083v3.624c-0.572-0.069-1.164-0.102-1.783-0.102
		c-0.656,0-1.129,0.152-1.414,0.462c-0.287,0.305-0.426,0.827-0.426,1.553v1.063h3.346v3.245h-3.346v14.435h-4.857V40.247H168.622z"
		/>
	<path fill="#FFFFFF" d="M181.992,34.267v-4.003h4.854v4.003H181.992z M186.846,37.002V54.68h-4.854V37.002H186.846z"/>
	<path fill="#FFFFFF" d="M195.289,37.002v3.281h0.07c0.227-0.55,0.535-1.054,0.929-1.521c0.384-0.467,0.827-0.864,1.325-1.197
		c0.504-0.328,1.041-0.592,1.608-0.772c0.568-0.18,1.164-0.273,1.779-0.273c0.317,0,0.675,0.056,1.06,0.176v4.511
		c-0.228-0.046-0.5-0.083-0.818-0.12c-0.323-0.037-0.629-0.051-0.924-0.051c-0.889,0-1.642,0.148-2.256,0.444
		c-0.615,0.295-1.113,0.703-1.488,1.211c-0.375,0.513-0.644,1.114-0.805,1.798c-0.156,0.684-0.24,1.423-0.24,2.223v7.968h-4.853
		V37.002H195.289z"/>
	<path fill="#FFFFFF" d="M208.693,37.002v2.389h0.067c0.64-0.906,1.41-1.613,2.308-2.117c0.906-0.499,1.937-0.753,3.097-0.753
		c1.118,0,2.14,0.217,3.062,0.647c0.92,0.434,1.623,1.201,2.1,2.292c0.526-0.776,1.238-1.456,2.14-2.052
		c0.902-0.592,1.965-0.888,3.194-0.888c0.934,0,1.802,0.116,2.602,0.342c0.796,0.231,1.479,0.591,2.052,1.095
		c0.568,0.499,1.014,1.155,1.332,1.964c0.318,0.813,0.48,1.784,0.48,2.921v11.836h-4.857v-10.02c0-0.592-0.022-1.155-0.063-1.673
		c-0.047-0.526-0.176-0.984-0.379-1.373c-0.204-0.383-0.509-0.693-0.906-0.919c-0.397-0.231-0.938-0.342-1.623-0.342
		c-0.688,0-1.242,0.129-1.663,0.388c-0.421,0.268-0.749,0.61-0.989,1.031c-0.239,0.421-0.396,0.901-0.479,1.433
		c-0.078,0.536-0.12,1.077-0.12,1.626v9.849h-4.853V44.76c0-0.521-0.015-1.04-0.033-1.557c-0.023-0.513-0.119-0.985-0.291-1.419
		c-0.172-0.43-0.457-0.777-0.855-1.045c-0.396-0.259-0.984-0.388-1.76-0.388c-0.23,0-0.527,0.051-0.906,0.153
		c-0.375,0.102-0.744,0.296-1.096,0.582c-0.355,0.282-0.656,0.698-0.906,1.229c-0.249,0.536-0.379,1.239-0.379,2.103v10.26h-4.854
		V37.002H208.693z"/>
</g>
</svg>
