<?xml version="1.0" encoding="utf-8"?>
<!-- Generator: Adobe Illustrator 16.0.4, SVG Export Plug-In . SVG Version: 6.00 Build 0)  -->
<!DOCTYPE svg PUBLIC "-//W3C//DTD SVG 1.1//EN" "http://www.w3.org/Graphics/SVG/1.1/DTD/svg11.dtd">
<svg version="1.1" id="Layer_1" xmlns="http://www.w3.org/2000/svg" xmlns:xlink="http://www.w3.org/1999/xlink" x="0px" y="0px"
	 width="512px" height="87px" viewBox="0 0 512 87" enable-background="new 0 0 512 87" xml:space="preserve">
<rect opacity="0.8" fill="#1B75BB" width="512" height="87.288"/>
<g>
	<path fill="#FFFFFF" d="M196.636,27.971v23.958h14.325v5.434h-20.787V27.971H196.636z"/>
	<path fill="#FFFFFF" d="M214.088,42.113c0.521-1.388,1.263-2.567,2.224-3.541c0.959-0.974,2.113-1.729,3.458-2.266
		c1.344-0.534,2.854-0.803,4.529-0.803c1.673,0,3.188,0.269,4.547,0.803c1.359,0.536,2.518,1.292,3.479,2.266
		c0.959,0.974,1.702,2.152,2.222,3.541c0.521,1.384,0.783,2.929,0.783,4.627c0,1.702-0.262,3.243-0.783,4.612
		c-0.52,1.37-1.263,2.547-2.222,3.521c-0.961,0.972-2.12,1.722-3.479,2.246c-1.359,0.518-2.874,0.776-4.547,0.776
		c-1.675,0-3.185-0.258-4.529-0.776c-1.345-0.523-2.498-1.273-3.458-2.246c-0.961-0.974-1.702-2.151-2.224-3.521
		c-0.521-1.37-0.781-2.91-0.781-4.612C213.307,45.042,213.566,43.497,214.088,42.113z M219.398,49.232
		c0.163,0.811,0.445,1.537,0.845,2.184c0.396,0.643,0.926,1.159,1.584,1.541c0.658,0.385,1.482,0.578,2.471,0.578
		s1.817-0.192,2.491-0.578c0.672-0.382,1.207-0.897,1.604-1.541c0.397-0.647,0.679-1.374,0.845-2.184
		c0.164-0.81,0.245-1.642,0.245-2.492c0-0.847-0.082-1.684-0.245-2.509c-0.166-0.823-0.447-1.55-0.845-2.18
		c-0.398-0.632-0.932-1.146-1.604-1.544c-0.674-0.398-1.502-0.598-2.491-0.598s-1.813,0.2-2.471,0.598s-1.188,0.912-1.584,1.544
		c-0.4,0.63-0.682,1.357-0.845,2.18c-0.164,0.825-0.246,1.662-0.246,2.509C219.153,47.59,219.235,48.422,219.398,49.232z"/>
	<path fill="#FFFFFF" d="M259.227,58.927c-0.234,1.099-0.737,2.122-1.504,3.068c-0.767,0.945-1.881,1.75-3.334,2.405
		c-1.455,0.662-3.403,0.988-5.846,0.988c-1.043,0-2.106-0.131-3.19-0.391c-1.083-0.261-2.071-0.665-2.963-1.213
		c-0.892-0.548-1.633-1.255-2.222-2.12c-0.592-0.865-0.926-1.9-1.008-3.106h5.803c0.272,1.095,0.811,1.856,1.604,2.285
		c0.795,0.421,1.717,0.636,2.759,0.636c1.646,0,2.847-0.494,3.601-1.481c0.755-0.99,1.119-2.236,1.092-3.748v-2.798h-0.083
		c-0.63,1.126-1.53,1.957-2.694,2.489c-1.168,0.536-2.396,0.801-3.686,0.801c-1.59,0-2.963-0.278-4.115-0.841
		c-1.153-0.563-2.1-1.33-2.841-2.307c-0.741-0.972-1.283-2.111-1.626-3.417c-0.343-1.299-0.514-2.68-0.514-4.133
		c0-1.374,0.2-2.698,0.596-3.973c0.399-1.277,0.982-2.402,1.751-3.376c0.767-0.976,1.722-1.751,2.861-2.327
		c1.137-0.576,2.449-0.865,3.93-0.865c1.399,0,2.627,0.262,3.685,0.783c1.057,0.523,1.94,1.401,2.654,2.634h0.083v-2.84h5.557
		v19.924C259.575,56.857,259.457,57.828,259.227,58.927z M251.218,51.845c0.63-0.327,1.154-0.767,1.564-1.315
		c0.412-0.547,0.719-1.173,0.926-1.873c0.206-0.701,0.309-1.434,0.309-2.206c0-0.875-0.083-1.706-0.247-2.487
		c-0.164-0.781-0.44-1.475-0.823-2.08c-0.385-0.603-0.892-1.083-1.524-1.44c-0.63-0.354-1.426-0.534-2.387-0.534
		c-0.823,0-1.53,0.165-2.12,0.494c-0.589,0.329-1.083,0.776-1.481,1.337c-0.398,0.563-0.687,1.21-0.866,1.935
		c-0.176,0.729-0.266,1.49-0.266,2.284c0,0.769,0.075,1.531,0.226,2.285c0.15,0.754,0.412,1.438,0.783,2.041s0.857,1.095,1.461,1.48
		c0.603,0.381,1.359,0.576,2.264,0.576C249.859,52.341,250.586,52.174,251.218,51.845z"/>
	<path fill="#FFFFFF" d="M282.79,27.971v29.391h-6.459V27.971H282.79z"/>
	<path fill="#FFFFFF" d="M293.412,36.081v2.965h0.123c0.741-1.237,1.703-2.135,2.882-2.698c1.179-0.563,2.386-0.845,3.624-0.845
		c1.562,0,2.846,0.214,3.847,0.64s1.793,1.014,2.369,1.77c0.575,0.756,0.98,1.673,1.215,2.758c0.23,1.084,0.349,2.284,0.349,3.603
		v13.089h-5.846v-12.02c0-1.756-0.274-3.066-0.823-3.931c-0.551-0.863-1.524-1.295-2.925-1.295c-1.588,0-2.74,0.473-3.457,1.419
		c-0.711,0.946-1.068,2.505-1.068,4.673v11.154h-5.847V36.081H293.412z"/>
</g>
</svg>
