<?xml version="1.0" encoding="utf-8"?>
<!-- Generator: Adobe Illustrator 16.0.4, SVG Export Plug-In . SVG Version: 6.00 Build 0)  -->
<!DOCTYPE svg PUBLIC "-//W3C//DTD SVG 1.1//EN" "http://www.w3.org/Graphics/SVG/1.1/DTD/svg11.dtd">
<svg version="1.1" id="Layer_1" xmlns="http://www.w3.org/2000/svg" xmlns:xlink="http://www.w3.org/1999/xlink" x="0px" y="0px"
	 width="512px" height="512px" viewBox="0 0 512 512" enable-background="new 0 0 512 512" xml:space="preserve">
<g>
	<g>
		<g>
			<g>
				<defs>
					<path id="SVGID_1_" d="M255.036,509.643C499.645,390.039,466.837,67.047,466.837,67.047
						c-75.674,2.85-167.264-34.312-211.801-64.32c-44.511,30.008-136.07,67.17-211.781,64.32
						C43.254,67.047,10.46,390.039,255.036,509.643z"/>
				</defs>
				<clipPath id="SVGID_2_">
					<use xlink:href="#SVGID_1_"  overflow="visible"/>
				</clipPath>
				<polygon opacity="0.7" clip-path="url(#SVGID_2_)" fill="#2B3990" enable-background="new    " points="335.577,-34.954 
					53.416,440.469 613.247,76.509 				"/>
			</g>
		</g>
		<g>
			<g>
				<defs>
					<path id="SVGID_3_" d="M255.036,509.643C499.645,390.039,466.837,67.047,466.837,67.047
						c-75.674,2.85-167.264-34.312-211.801-64.32c-44.511,30.008-136.07,67.17-211.781,64.32
						C43.254,67.047,10.46,390.039,255.036,509.643z"/>
				</defs>
				<clipPath id="SVGID_4_">
					<use xlink:href="#SVGID_3_"  overflow="visible"/>
				</clipPath>
				<polygon opacity="0.7" clip-path="url(#SVGID_4_)" fill="#2B3990" enable-background="new    " points="393.74,62.249 
					176.308,570.536 683.617,136.345 				"/>
			</g>
		</g>
		<g>
			<g>
				<defs>
					<path id="SVGID_5_" d="M255.036,509.643C499.645,390.039,466.837,67.047,466.837,67.047
						c-75.674,2.85-167.264-34.312-211.801-64.32c-44.511,30.008-136.07,67.17-211.781,64.32
						C43.254,67.047,10.46,390.039,255.036,509.643z"/>
				</defs>
				<clipPath id="SVGID_6_">
					<use xlink:href="#SVGID_5_"  overflow="visible"/>
				</clipPath>
				<polygon opacity="0.7" clip-path="url(#SVGID_6_)" fill="#2B3990" enable-background="new    " points="-27.072,61.527 
					145.583,586.735 239.466,-74.366 				"/>
			</g>
		</g>
		<g>
			<g>
				<defs>
					<path id="SVGID_7_" d="M255.036,509.643C499.645,390.039,466.837,67.047,466.837,67.047
						c-75.674,2.85-167.264-34.312-211.801-64.32c-44.511,30.008-136.07,67.17-211.781,64.32
						C43.254,67.047,10.46,390.039,255.036,509.643z"/>
				</defs>
				<clipPath id="SVGID_8_">
					<use xlink:href="#SVGID_7_"  overflow="visible"/>
				</clipPath>
				<polygon opacity="0.6" clip-path="url(#SVGID_8_)" fill="#1C75BC" enable-background="new    " points="244.798,-45.111 
					265.443,575.241 500.547,404.45 				"/>
			</g>
		</g>
		<g>
			<g>
				<defs>
					<path id="SVGID_9_" d="M255.036,509.643C499.645,390.039,466.837,67.047,466.837,67.047
						c-75.674,2.85-167.264-34.312-211.801-64.32c-44.511,30.008-136.07,67.17-211.781,64.32
						C43.254,67.047,10.46,390.039,255.036,509.643z"/>
				</defs>
				<clipPath id="SVGID_10_">
					<use xlink:href="#SVGID_9_"  overflow="visible"/>
				</clipPath>
				<polygon opacity="0.6" clip-path="url(#SVGID_10_)" fill="#27AAE1" enable-background="new    " points="293.125,-34.954 
					217.982,571.414 307.421,592.883 				"/>
			</g>
		</g>
		<g>
			<g>
				<defs>
					<path id="SVGID_11_" d="M255.036,509.643C499.645,390.039,466.837,67.047,466.837,67.047
						c-75.674,2.85-167.264-34.312-211.801-64.32c-44.511,30.008-136.07,67.17-211.781,64.32
						C43.254,67.047,10.46,390.039,255.036,509.643z"/>
				</defs>
				<clipPath id="SVGID_12_">
					<use xlink:href="#SVGID_11_"  overflow="visible"/>
				</clipPath>
				<polygon opacity="0.6" clip-path="url(#SVGID_12_)" fill="#1C75BC" enable-background="new    " points="273.441,-63.596 
					-27.072,408.551 151.793,509.643 				"/>
			</g>
		</g>
		<g>
			<g>
				<defs>
					<path id="SVGID_13_" d="M255.036,509.643C499.645,390.039,466.837,67.047,466.837,67.047
						c-75.674,2.85-167.264-34.312-211.801-64.32c-44.511,30.008-136.07,67.17-211.781,64.32
						C43.254,67.047,10.46,390.039,255.036,509.643z"/>
				</defs>
				<clipPath id="SVGID_14_">
					<use xlink:href="#SVGID_13_"  overflow="visible"/>
				</clipPath>
				<polygon opacity="0.6" clip-path="url(#SVGID_14_)" fill="#27AAE1" enable-background="new    " points="373.597,544.082 
					227.742,-49.294 136.513,-37.477 				"/>
			</g>
		</g>
		<g>
			<g>
				<defs>
					<path id="SVGID_15_" d="M255.036,509.643C499.645,390.039,466.837,67.047,466.837,67.047
						c-75.674,2.85-167.264-34.312-211.801-64.32c-44.511,30.008-136.07,67.17-211.781,64.32
						C43.254,67.047,10.46,390.039,255.036,509.643z"/>
				</defs>
				<clipPath id="SVGID_16_">
					<use xlink:href="#SVGID_15_"  overflow="visible"/>
				</clipPath>
				<polygon opacity="0.6" clip-path="url(#SVGID_16_)" fill="#27AAE1" enable-background="new    " points="282.059,-59.096 
					116.594,533.646 239.03,567.58 				"/>
			</g>
		</g>
	</g>
	<g>
		<path fill="#FFFFFF" d="M303.298,169.323c0.259,27.171-21.544,49.433-48.735,49.705c-27.177,0.287-49.419-21.527-49.709-48.723
			c-0.272-27.171,21.558-49.421,48.726-49.704C280.761,120.325,303.027,142.151,303.298,169.323z"/>
		<g>
			<path fill="#FFFFFF" d="M166.554,369.223c-15.927,0-22.442-11.285-14.478-25.078l88.171-152.703
				c7.964-13.793,20.995-13.792,28.957,0.002l88.136,152.697c7.962,13.795,1.445,25.082-14.48,25.082H166.554L166.554,369.223z"/>
		</g>
	</g>
	<g>
		<path fill="#1C75BC" d="M279.162,251.052c0.145,12.855-10.196,23.396-23.053,23.531c-12.89,0.136-23.405-10.199-23.56-23.066
			c-0.112-12.885,10.22-23.408,23.075-23.547C268.498,227.847,279.049,238.168,279.162,251.052z"/>
		<g>
			<path fill="#1C75BC" d="M229.665,345.705c-15.927,0-22.442-11.285-14.477-25.078l26.514-45.915
				c7.965-13.793,20.995-13.791,28.956,0.004l26.496,45.908c7.961,13.795,1.443,25.081-14.484,25.081H229.665L229.665,345.705z"/>
		</g>
	</g>
</g>
</svg>
