<?xml version="1.0" encoding="utf-8"?>
<!-- Generator: Adobe Illustrator 16.0.4, SVG Export Plug-In . SVG Version: 6.00 Build 0)  -->
<!DOCTYPE svg PUBLIC "-//W3C//DTD SVG 1.1//EN" "http://www.w3.org/Graphics/SVG/1.1/DTD/svg11.dtd">
<svg version="1.1" id="Layer_1" xmlns="http://www.w3.org/2000/svg" xmlns:xlink="http://www.w3.org/1999/xlink" x="0px" y="0px"
	 width="512px" height="512px" viewBox="0 0 512 512" enable-background="new 0 0 512 512" xml:space="preserve">
<g>
	<path fill="#1B75BB" d="M254.064,509.643C498.676,390.037,465.867,67.047,465.867,67.047
		c-75.673,2.85-167.266-34.312-211.803-64.32c-44.51,30.008-136.068,67.169-211.781,64.32
		C42.283,67.047,9.491,390.037,254.064,509.643z"/>
	<g>
		<path fill="#FFFFFF" d="M302.325,169.322c0.263,27.171-21.54,49.432-48.732,49.705c-27.178,0.287-49.419-21.527-49.712-48.724
			c-0.271-27.171,21.559-49.42,48.726-49.704C279.787,120.325,302.053,142.15,302.325,169.322z"/>
		<g>
			<path fill="#FFFFFF" d="M165.583,369.225c-15.927,0-22.442-11.285-14.478-25.078l88.171-152.705
				c7.964-13.793,20.996-13.792,28.957,0.002l88.139,152.701c7.962,13.793,1.445,25.08-14.482,25.08H165.583L165.583,369.225z"/>
		</g>
	</g>
	<g>
		<path fill="#1B75BB" d="M278.189,251.051c0.146,12.855-10.196,23.395-23.049,23.53c-12.891,0.136-23.406-10.198-23.561-23.065
			c-0.112-12.885,10.22-23.408,23.073-23.547C267.523,227.847,278.077,238.168,278.189,251.051z"/>
		<g>
			<path fill="#1B75BB" d="M228.694,345.704c-15.927,0-22.442-11.285-14.477-25.077l26.515-45.916
				c7.965-13.792,20.995-13.79,28.958,0.004l26.492,45.908c7.961,13.794,1.443,25.081-14.483,25.081H228.694L228.694,345.704z"/>
		</g>
	</g>
</g>
</svg>
