<?xml version="1.0" encoding="utf-8"?>
<!-- Generator: Adobe Illustrator 16.0.4, SVG Export Plug-In . SVG Version: 6.00 Build 0)  -->
<!DOCTYPE svg PUBLIC "-//W3C//DTD SVG 1.1//EN" "http://www.w3.org/Graphics/SVG/1.1/DTD/svg11.dtd">
<svg version="1.1" id="Layer_1" xmlns="http://www.w3.org/2000/svg" xmlns:xlink="http://www.w3.org/1999/xlink" x="0px" y="0px"
	 width="512px" height="400px" viewBox="0 0 512 400" enable-background="new 0 0 512 400" xml:space="preserve">
<g>
	<path fill="#FFFFFF" d="M509.5,38.042c0,19.083-28.074,34.697-62.389,34.697H64.388C30.075,72.738,2,57.125,2,38.042
		S30.075,3.345,64.388,3.345h382.723C481.426,3.345,509.5,18.958,509.5,38.042z"/>
</g>
<g>
	<path fill="#FFFFFF" d="M509.5,201.185c0,19.077-28.074,34.685-62.389,34.685H64.388C30.075,235.87,2,220.262,2,201.185
		S30.075,166.5,64.388,166.5h382.723C481.426,166.5,509.5,182.108,509.5,201.185z"/>
</g>
<g>
	<path fill="#FFFFFF" d="M509.5,364.315c0,19.076-28.074,34.685-62.389,34.685H64.388C30.075,399,2,383.392,2,364.315
		c0-19.077,28.075-34.686,62.388-34.686h382.723C481.426,329.63,509.5,345.238,509.5,364.315z"/>
</g>
</svg>
