<?xml version="1.0" encoding="utf-8"?>
<!-- Generator: Adobe Illustrator 16.0.4, SVG Export Plug-In . SVG Version: 6.00 Build 0)  -->
<!DOCTYPE svg PUBLIC "-//W3C//DTD SVG 1.1//EN" "http://www.w3.org/Graphics/SVG/1.1/DTD/svg11.dtd">
<svg version="1.1" id="Layer_1" xmlns="http://www.w3.org/2000/svg" xmlns:xlink="http://www.w3.org/1999/xlink" x="0px" y="0px"
	 width="333px" height="400px" viewBox="0 0 333 400" enable-background="new 0 0 333 400" xml:space="preserve">
<rect x="1.101" fill="#26A9E0" width="330.797" height="400"/>
<g>
	<path fill="#FFFFFF" d="M107.246,155.901c2.989-7.714,7.194-14.413,12.61-20.074c5.422-5.652,11.918-10.092,19.562-13.256
		c7.631-3.182,16.188-4.773,25.612-4.773c12.19,0,22.362,1.695,30.506,5.028c8.185,3.351,14.7,7.506,19.707,12.494
		c4.988,4.976,8.551,10.322,10.695,16.081c2.11,5.738,3.226,11.117,3.226,16.096c0,8.247-1.114,15.034-3.226,20.334
		c-2.146,5.34-4.812,9.875-8.009,13.647c-3.134,3.779-6.674,6.992-10.535,9.68c-3.845,2.644-7.52,5.3-10.922,7.953
		c-3.428,2.677-6.488,5.716-9.175,9.143c-2.644,3.446-4.329,7.715-4.985,12.868v9.794h-34.795v-11.585
		c0.529-7.362,1.946-13.556,4.291-18.544c2.289-4.988,4.984-9.215,8.065-12.745c3.095-3.507,6.384-6.563,9.799-9.141
		c3.425-2.583,6.601-5.138,9.519-7.72c2.925-2.577,5.287-5.404,7.09-8.51c1.811-3.094,2.621-6.928,2.445-11.567
		c0-7.888-1.936-13.724-5.787-17.513c-3.865-3.757-9.228-5.68-16.131-5.68c-4.59,0-8.607,0.928-11.931,2.727
		c-3.362,1.793-6.103,4.199-8.256,7.216c-2.146,2.99-3.715,6.512-4.746,10.539c-1.044,4.042-1.573,8.378-1.573,13.011H102.47
		C102.644,172.123,104.228,163.634,107.246,155.901z M184.353,266.369v39.656h-40.447v-39.656H184.353z"/>
</g>
</svg>
