<?xml version="1.0" encoding="utf-8"?>
<!-- Generator: Adobe Illustrator 16.0.4, SVG Export Plug-In . SVG Version: 6.00 Build 0)  -->
<!DOCTYPE svg PUBLIC "-//W3C//DTD SVG 1.1//EN" "http://www.w3.org/Graphics/SVG/1.1/DTD/svg11.dtd">
<svg version="1.1" id="Layer_1" xmlns="http://www.w3.org/2000/svg" xmlns:xlink="http://www.w3.org/1999/xlink" x="0px" y="0px"
	 width="334px" height="87px" viewBox="0 0 334 87" enable-background="new 0 0 334 87" xml:space="preserve">
<rect opacity="0.8" fill="#1B75BB" enable-background="new    " width="334" height="87.325"/>
<g>
	<path fill="#FFFFFF" d="M50.695,31.077c1.095,0,2.087,0.176,2.964,0.534c0.886,0.357,1.633,0.84,2.264,1.457
		c0.631,0.617,1.113,1.336,1.443,2.148c0.334,0.807,0.501,1.688,0.501,2.625c0,1.443-0.306,2.691-0.909,3.739
		c-0.608,1.053-1.596,1.851-2.969,2.403v0.07c0.664,0.182,1.211,0.459,1.647,0.84c0.432,0.375,0.789,0.825,1.062,1.336
		c0.273,0.515,0.473,1.086,0.598,1.703c0.13,0.615,0.213,1.229,0.26,1.851c0.023,0.39,0.046,0.85,0.07,1.373
		c0.023,0.528,0.06,1.062,0.121,1.614c0.056,0.547,0.148,1.066,0.273,1.562c0.125,0.486,0.315,0.904,0.566,1.253h-5.39
		c-0.292-0.778-0.478-1.708-0.547-2.784c-0.07-1.07-0.167-2.105-0.311-3.089c-0.181-1.28-0.571-2.218-1.165-2.812
		c-0.598-0.594-1.568-0.896-2.918-0.896h-5.386v9.58h-5.391V31.077H50.695z M48.774,42.164c1.229,0,2.157-0.273,2.779-0.826
		c0.617-0.547,0.928-1.438,0.928-2.677c0-1.188-0.311-2.055-0.928-2.588c-0.622-0.538-1.549-0.808-2.779-0.808h-5.905v6.898
		L48.774,42.164L48.774,42.164z"/>
	<path fill="#FFFFFF" d="M66.959,51.326c0.733,0.71,1.786,1.062,3.155,1.062c0.988,0,1.832-0.242,2.542-0.738
		c0.71-0.491,1.146-1.012,1.304-1.56h4.291c-0.691,2.125-1.74,3.646-3.154,4.565c-1.424,0.912-3.141,1.367-5.149,1.367
		c-1.396,0-2.654-0.223-3.776-0.668c-1.122-0.444-2.074-1.08-2.848-1.905c-0.779-0.821-1.378-1.802-1.8-2.946
		c-0.427-1.15-0.635-2.402-0.635-3.775c0-1.326,0.213-2.565,0.649-3.707c0.436-1.146,1.048-2.134,1.855-2.969
		c0.798-0.835,1.753-1.494,2.862-1.976c1.113-0.478,2.338-0.719,3.693-0.719c1.507,0,2.82,0.292,3.943,0.877
		s2.042,1.364,2.765,2.347c0.719,0.988,1.243,2.111,1.559,3.363c0.32,1.262,0.436,2.575,0.348,3.948H65.76
		C65.823,49.475,66.227,50.616,66.959,51.326z M72.466,41.988c-0.58-0.635-1.471-0.956-2.658-0.956c-0.779,0-1.424,0.13-1.939,0.395
		c-0.515,0.264-0.923,0.589-1.238,0.979c-0.306,0.39-0.524,0.798-0.649,1.234s-0.2,0.826-0.223,1.165h7.928
		C73.459,43.574,73.051,42.633,72.466,41.988z"/>
	<path fill="#FFFFFF" d="M93.861,61.792v-8.438h-0.065c-0.575,0.955-1.373,1.646-2.403,2.056c-1.029,0.413-2.097,0.616-3.191,0.616
		c-0.826,0-1.68-0.152-2.557-0.463c-0.881-0.307-1.688-0.821-2.42-1.541c-0.729-0.724-1.342-1.67-1.82-2.849
		c-0.478-1.179-0.719-2.626-0.719-4.342c0-1.216,0.158-2.39,0.482-3.535c0.314-1.146,0.812-2.157,1.475-3.034
		c0.664-0.886,1.494-1.591,2.487-2.111c0.993-0.534,2.166-0.793,3.517-0.793c1.1,0,2.133,0.213,3.104,0.636
		c0.975,0.422,1.74,1.127,2.287,2.111h0.064V37.84h4.635v23.952H93.861z M85.766,48.803c0.135,0.672,0.367,1.285,0.705,1.822
		c0.33,0.534,0.766,0.966,1.299,1.285c0.539,0.32,1.207,0.479,2.01,0.479c0.798,0,1.471-0.152,2.009-0.459
		c0.538-0.312,0.974-0.725,1.304-1.238c0.334-0.516,0.57-1.104,0.725-1.781c0.147-0.678,0.223-1.383,0.223-2.115
		c0-0.684-0.074-1.373-0.223-2.056c-0.153-0.687-0.391-1.308-0.705-1.855c-0.32-0.547-0.747-0.993-1.291-1.336
		c-0.537-0.343-1.178-0.515-1.938-0.515c-0.798,0-1.475,0.158-2.022,0.478c-0.551,0.32-0.992,0.752-1.336,1.29
		c-0.348,0.538-0.594,1.141-0.737,1.818c-0.153,0.677-0.228,1.378-0.228,2.109C85.559,47.438,85.627,48.13,85.766,48.803z"/>
	<path fill="#FFFFFF" d="M114.421,55.585v-2.474h-0.103c-0.616,1.031-1.418,1.772-2.402,2.231c-0.984,0.454-1.995,0.683-3.02,0.683
		c-1.305,0-2.375-0.168-3.211-0.51c-0.834-0.35-1.494-0.832-1.972-1.463c-0.481-0.626-0.815-1.392-1.011-2.296
		c-0.195-0.903-0.292-1.905-0.292-3.006V37.84h4.871v10.021c0,1.461,0.228,2.556,0.687,3.279c0.459,0.715,1.271,1.075,2.436,1.075
		c1.326,0,2.287-0.396,2.886-1.183c0.594-0.789,0.892-2.088,0.892-3.897V37.84h4.87v17.745H114.421z"/>
	<path fill="#FFFFFF" d="M127.977,51.326c0.733,0.71,1.787,1.062,3.155,1.062c0.983,0,1.828-0.242,2.542-0.738
		c0.71-0.491,1.146-1.012,1.309-1.56h4.287c-0.691,2.125-1.744,3.646-3.155,4.565c-1.425,0.912-3.136,1.367-5.149,1.367
		c-1.396,0-2.654-0.223-3.775-0.668c-1.123-0.444-2.074-1.08-2.849-1.905c-0.78-0.821-1.378-1.802-1.8-2.946
		c-0.428-1.15-0.641-2.402-0.641-3.775c0-1.326,0.219-2.565,0.654-3.707c0.432-1.146,1.053-2.134,1.855-2.969
		c0.798-0.835,1.753-1.494,2.861-1.976c1.113-0.478,2.338-0.719,3.693-0.719c1.508,0,2.82,0.292,3.943,0.877
		s2.041,1.364,2.765,2.347c0.72,0.988,1.243,2.111,1.56,3.363c0.319,1.262,0.436,2.575,0.348,3.948h-12.805
		C126.84,49.475,127.244,50.616,127.977,51.326z M133.482,41.988c-0.58-0.635-1.469-0.956-2.657-0.956
		c-0.78,0-1.425,0.13-1.938,0.395c-0.516,0.264-0.924,0.589-1.234,0.979c-0.312,0.39-0.529,0.798-0.654,1.234
		s-0.199,0.826-0.223,1.165h7.928C134.471,43.574,134.068,42.633,133.482,41.988z"/>
	<path fill="#FFFFFF" d="M146.561,51.173c0.213,0.376,0.496,0.683,0.84,0.923c0.338,0.242,0.738,0.424,1.188,0.534
		c0.44,0.116,0.904,0.171,1.388,0.171c0.338,0,0.7-0.041,1.076-0.119c0.381-0.08,0.725-0.205,1.034-0.377
		c0.306-0.172,0.562-0.397,0.771-0.687c0.209-0.282,0.311-0.646,0.311-1.081c0-0.732-0.486-1.28-1.461-1.651
		c-0.969-0.36-2.329-0.728-4.062-1.095c-0.711-0.158-1.401-0.348-2.08-0.566c-0.676-0.213-1.274-0.5-1.805-0.856
		c-0.52-0.357-0.945-0.804-1.266-1.341c-0.32-0.538-0.482-1.192-0.482-1.972c0-1.146,0.228-2.078,0.672-2.816
		c0.445-0.729,1.035-1.303,1.769-1.73c0.733-0.422,1.554-0.724,2.468-0.891c0.919-0.171,1.855-0.26,2.816-0.26
		c0.959,0,1.893,0.093,2.797,0.274c0.9,0.181,1.708,0.496,2.417,0.928c0.71,0.436,1.299,1.011,1.768,1.735
		c0.47,0.719,0.751,1.628,0.845,2.728h-4.635c-0.07-0.938-0.427-1.577-1.066-1.902c-0.641-0.338-1.396-0.501-2.26-0.501
		c-0.273,0-0.58,0.019-0.896,0.051c-0.319,0.032-0.612,0.106-0.876,0.223c-0.26,0.116-0.482,0.278-0.668,0.501
		c-0.182,0.213-0.273,0.51-0.273,0.872c0,0.436,0.157,0.789,0.481,1.067c0.319,0.274,0.737,0.492,1.252,0.668
		c0.51,0.167,1.104,0.325,1.769,0.464c0.664,0.136,1.336,0.283,2.021,0.445c0.705,0.157,1.4,0.353,2.074,0.58
		c0.677,0.231,1.275,0.532,1.805,0.909c0.523,0.38,0.951,0.849,1.271,1.41c0.314,0.562,0.478,1.252,0.478,2.078
		c0,1.164-0.237,2.144-0.705,2.932c-0.469,0.783-1.077,1.425-1.837,1.906c-0.751,0.479-1.614,0.816-2.584,1.013
		c-0.975,0.194-1.967,0.286-2.975,0.286c-1.029,0-2.035-0.102-3.02-0.307c-0.982-0.203-1.855-0.552-2.621-1.023
		c-0.771-0.487-1.396-1.123-1.893-1.907c-0.492-0.788-0.762-1.781-0.803-2.974h4.635C146.236,50.343,146.342,50.793,146.561,51.173z
		"/>
	<path fill="#FFFFFF" d="M170.633,37.84v3.257h-3.568v8.792c0,0.82,0.136,1.373,0.408,1.643c0.279,0.273,0.826,0.412,1.652,0.412
		c0.273,0,0.533-0.014,0.788-0.032c0.251-0.022,0.491-0.056,0.72-0.106v3.781c-0.408,0.064-0.867,0.111-1.374,0.134
		c-0.501,0.023-0.991,0.033-1.475,0.033c-0.751,0-1.472-0.047-2.147-0.153c-0.669-0.103-1.268-0.302-1.781-0.599
		c-0.516-0.297-0.92-0.724-1.221-1.274c-0.292-0.547-0.441-1.268-0.441-2.158V41.099h-2.955V37.84h2.955v-5.32h4.871v5.321
		L170.633,37.84L170.633,37.84z"/>
	<path fill="#FFFFFF" d="M195.236,31.077l9.162,24.508h-5.59l-1.854-5.456h-9.162l-1.921,5.456h-5.423l9.265-24.508H195.236z
		 M195.549,46.111l-3.09-8.995h-0.068l-3.192,8.995H195.549z"/>
	<path fill="#FFFFFF" d="M214.494,41.032c-0.779,0-1.434,0.172-1.958,0.529c-0.528,0.357-0.955,0.816-1.284,1.373
		c-0.334,0.566-0.57,1.177-0.705,1.856c-0.14,0.673-0.209,1.341-0.209,2.004c0,0.646,0.069,1.294,0.209,1.958
		c0.135,0.663,0.361,1.266,0.672,1.805c0.307,0.537,0.725,0.975,1.248,1.321c0.529,0.339,1.169,0.511,1.922,0.511
		c1.168,0,2.063-0.324,2.694-0.975c0.631-0.654,1.025-1.525,1.188-2.625h4.699c-0.319,2.355-1.233,4.15-2.741,5.385
		c-1.513,1.234-3.446,1.852-5.804,1.852c-1.327,0-2.547-0.223-3.655-0.668c-1.108-0.444-2.051-1.065-2.83-1.868
		c-0.778-0.8-1.387-1.755-1.822-2.863c-0.432-1.112-0.649-2.328-0.649-3.653c0-1.375,0.199-2.649,0.604-3.829
		c0.394-1.178,0.982-2.199,1.763-3.057c0.779-0.858,1.729-1.526,2.849-2.009c1.123-0.478,2.407-0.719,3.851-0.719
		c1.049,0,2.063,0.139,3.034,0.413c0.974,0.274,1.842,0.691,2.606,1.248c0.766,0.566,1.388,1.262,1.869,2.102
		c0.482,0.831,0.756,1.823,0.826,2.964h-4.774C217.778,42.053,216.572,41.032,214.494,41.032z"/>
	<path fill="#FFFFFF" d="M234.188,41.032c-0.774,0-1.425,0.172-1.953,0.529c-0.523,0.357-0.955,0.816-1.284,1.373
		c-0.334,0.566-0.566,1.177-0.705,1.856c-0.135,0.673-0.204,1.341-0.204,2.004c0,0.646,0.069,1.294,0.204,1.958
		c0.139,0.663,0.355,1.266,0.672,1.805c0.307,0.537,0.724,0.975,1.248,1.321c0.529,0.339,1.165,0.511,1.926,0.511
		c1.164,0,2.064-0.324,2.695-0.975c0.626-0.654,1.023-1.525,1.183-2.625h4.699c-0.32,2.355-1.234,4.15-2.741,5.385
		c-1.513,1.234-3.441,1.852-5.804,1.852c-1.327,0-2.547-0.223-3.651-0.668c-1.112-0.444-2.055-1.065-2.834-1.868
		c-0.778-0.8-1.383-1.755-1.817-2.863c-0.438-1.112-0.649-2.328-0.649-3.653c0-1.375,0.199-2.649,0.6-3.829
		c0.397-1.178,0.986-2.199,1.767-3.057c0.775-0.858,1.727-1.526,2.849-2.009c1.118-0.478,2.403-0.719,3.841-0.719
		c1.055,0,2.064,0.139,3.039,0.413s1.838,0.691,2.611,1.248c0.761,0.566,1.388,1.262,1.87,2.102
		c0.478,0.831,0.751,1.823,0.825,2.964h-4.773C237.472,42.053,236.274,41.032,234.188,41.032z"/>
	<path fill="#FFFFFF" d="M250.632,51.326c0.729,0.71,1.782,1.062,3.155,1.062c0.982,0,1.832-0.242,2.542-0.738
		c0.705-0.491,1.141-1.012,1.299-1.56h4.291c-0.682,2.125-1.735,3.646-3.159,4.565c-1.415,0.912-3.131,1.367-5.145,1.367
		c-1.396,0-2.653-0.223-3.776-0.668c-1.118-0.444-2.069-1.08-2.849-1.905c-0.774-0.821-1.377-1.802-1.806-2.946
		c-0.417-1.15-0.631-2.402-0.631-3.775c0-1.326,0.22-2.565,0.654-3.707c0.432-1.146,1.054-2.134,1.852-2.969
		c0.803-0.835,1.753-1.494,2.866-1.976c1.104-0.478,2.339-0.719,3.688-0.719c1.512,0,2.825,0.292,3.946,0.877
		c1.118,0.584,2.042,1.364,2.762,2.347c0.724,0.988,1.237,2.111,1.562,3.363c0.32,1.262,0.437,2.575,0.343,3.948h-12.804
		C249.5,49.475,249.899,50.616,250.632,51.326z M256.139,41.988c-0.584-0.635-1.471-0.956-2.657-0.956
		c-0.779,0-1.43,0.13-1.939,0.395c-0.52,0.264-0.928,0.589-1.238,0.979c-0.31,0.39-0.523,0.798-0.648,1.234
		c-0.13,0.436-0.199,0.826-0.229,1.165h7.93C257.127,43.574,256.719,42.633,256.139,41.988z"/>
	<path fill="#FFFFFF" d="M269.212,51.173c0.218,0.376,0.496,0.683,0.839,0.923c0.35,0.242,0.738,0.424,1.185,0.534
		c0.449,0.116,0.914,0.171,1.392,0.171c0.348,0,0.705-0.041,1.085-0.119c0.376-0.08,0.715-0.205,1.025-0.377
		c0.312-0.172,0.565-0.397,0.771-0.687c0.209-0.282,0.315-0.646,0.315-1.081c0-0.732-0.492-1.28-1.462-1.651
		c-0.975-0.36-2.328-0.728-4.068-1.095c-0.709-0.158-1.4-0.348-2.078-0.566c-0.673-0.213-1.274-0.5-1.8-0.856
		c-0.528-0.357-0.951-0.804-1.271-1.341c-0.319-0.538-0.479-1.192-0.479-1.972c0-1.146,0.223-2.078,0.668-2.816
		c0.445-0.729,1.035-1.303,1.768-1.73c0.733-0.422,1.556-0.724,2.474-0.891c0.914-0.171,1.851-0.26,2.815-0.26
		c0.955,0,1.889,0.093,2.792,0.274c0.909,0.181,1.712,0.496,2.422,0.928c0.711,0.436,1.3,1.011,1.769,1.735
		c0.469,0.719,0.747,1.628,0.84,2.728h-4.63c-0.074-0.938-0.422-1.577-1.067-1.902c-0.64-0.338-1.396-0.501-2.264-0.501
		c-0.278,0-0.57,0.019-0.896,0.051c-0.32,0.032-0.607,0.106-0.872,0.223c-0.266,0.116-0.487,0.278-0.668,0.501
		c-0.187,0.213-0.273,0.51-0.273,0.872c0,0.436,0.157,0.789,0.478,1.067c0.32,0.274,0.737,0.492,1.254,0.668
		c0.515,0.167,1.104,0.325,1.768,0.464c0.663,0.136,1.34,0.283,2.021,0.445c0.715,0.157,1.4,0.353,2.078,0.58
		c0.678,0.231,1.275,0.532,1.801,0.909c0.528,0.38,0.95,0.849,1.271,1.41c0.324,0.562,0.482,1.252,0.482,2.078
		c0,1.164-0.232,2.144-0.705,2.932c-0.47,0.783-1.081,1.425-1.837,1.906c-0.758,0.479-1.619,0.816-2.595,1.013
		c-0.97,0.194-1.958,0.286-2.964,0.286c-1.029,0-2.037-0.102-3.021-0.307c-0.983-0.203-1.86-0.552-2.626-1.023
		c-0.766-0.487-1.396-1.123-1.889-1.907c-0.491-0.788-0.761-1.781-0.808-2.974h4.635C268.887,50.343,268.993,50.793,269.212,51.173z
		"/>
	<path fill="#FFFFFF" d="M287.643,51.173c0.219,0.376,0.496,0.683,0.841,0.923c0.343,0.242,0.736,0.424,1.188,0.534
		c0.44,0.116,0.904,0.171,1.387,0.171c0.345,0,0.705-0.041,1.081-0.119c0.376-0.08,0.725-0.205,1.029-0.377
		c0.312-0.172,0.562-0.397,0.771-0.687c0.209-0.282,0.311-0.646,0.311-1.081c0-0.732-0.487-1.28-1.456-1.651
		c-0.975-0.36-2.334-0.728-4.068-1.095c-0.71-0.158-1.4-0.348-2.079-0.566c-0.677-0.213-1.271-0.5-1.804-0.856
		c-0.521-0.357-0.946-0.804-1.263-1.341c-0.324-0.538-0.486-1.192-0.486-1.972c0-1.146,0.228-2.078,0.672-2.816
		c0.445-0.729,1.035-1.303,1.769-1.73c0.732-0.422,1.559-0.724,2.469-0.891c0.918-0.171,1.855-0.26,2.815-0.26
		s1.893,0.093,2.797,0.274c0.904,0.181,1.712,0.496,2.422,0.928c0.705,0.436,1.294,1.011,1.768,1.735
		c0.47,0.719,0.747,1.628,0.84,2.728h-4.635c-0.068-0.938-0.422-1.577-1.062-1.902c-0.641-0.338-1.396-0.501-2.265-0.501
		c-0.272,0-0.574,0.019-0.896,0.051c-0.315,0.032-0.612,0.106-0.872,0.223c-0.264,0.116-0.486,0.278-0.672,0.501
		c-0.183,0.213-0.274,0.51-0.274,0.872c0,0.436,0.158,0.789,0.482,1.067c0.319,0.274,0.738,0.492,1.253,0.668
		c0.515,0.167,1.104,0.325,1.768,0.464c0.663,0.136,1.336,0.283,2.022,0.445c0.71,0.157,1.4,0.353,2.073,0.58
		c0.678,0.231,1.279,0.532,1.805,0.909c0.523,0.38,0.951,0.849,1.271,1.41c0.32,0.561,0.479,1.252,0.479,2.078
		c0,1.164-0.231,2.144-0.705,2.932c-0.469,0.783-1.076,1.425-1.832,1.906c-0.752,0.479-1.619,0.816-2.589,1.013
		c-0.976,0.194-1.962,0.286-2.969,0.286c-1.035,0-2.037-0.102-3.024-0.307c-0.984-0.203-1.855-0.552-2.621-1.023
		c-0.771-0.487-1.396-1.123-1.889-1.907c-0.496-0.788-0.761-1.781-0.808-2.974h4.635C287.317,50.343,287.424,50.793,287.643,51.173z
		"/>
</g>
</svg>
