<?xml version="1.0" encoding="utf-8"?>
<!-- Generator: Adobe Illustrator 16.0.4, SVG Export Plug-In . SVG Version: 6.00 Build 0)  -->
<!DOCTYPE svg PUBLIC "-//W3C//DTD SVG 1.1//EN" "http://www.w3.org/Graphics/SVG/1.1/DTD/svg11.dtd">
<svg version="1.1" id="Layer_1" xmlns="http://www.w3.org/2000/svg" xmlns:xlink="http://www.w3.org/1999/xlink" x="0px" y="0px"
	 width="512px" height="160px" viewBox="0 0 512 160" enable-background="new 0 0 512 160" xml:space="preserve">
<g>
	<g>
		<g>
			<g>
				<defs>
					<path id="SVGID_1_" d="M68.836,155.798c73.463-35.925,63.609-132.935,63.609-132.935c-22.731,0.859-50.24-10.3-63.609-19.316
						C55.468,12.563,27.963,23.723,5.229,22.863C5.229,22.863-4.625,119.877,68.836,155.798z"/>
				</defs>
				<clipPath id="SVGID_2_">
					<use xlink:href="#SVGID_1_"  overflow="visible"/>
				</clipPath>
				<polygon opacity="0.7" clip-path="url(#SVGID_2_)" fill="#2B388F" enable-background="new    " points="93.029,-7.774 
					8.277,135.018 176.418,25.706 				"/>
			</g>
		</g>
	</g>
	<g>
		<g>
			<g>
				<defs>
					<path id="SVGID_3_" d="M68.836,155.798c73.463-35.925,63.609-132.935,63.609-132.935c-22.731,0.859-50.24-10.3-63.609-19.316
						C55.468,12.563,27.963,23.723,5.229,22.863C5.229,22.863-4.625,119.877,68.836,155.798z"/>
				</defs>
				<clipPath id="SVGID_4_">
					<use xlink:href="#SVGID_3_"  overflow="visible"/>
				</clipPath>
				<polygon opacity="0.7" clip-path="url(#SVGID_4_)" fill="#2B388F" enable-background="new    " points="110.493,21.422 
					45.191,174.087 197.55,43.682 				"/>
			</g>
		</g>
	</g>
	<g>
		<g>
			<g>
				<defs>
					<path id="SVGID_5_" d="M68.836,155.798c73.463-35.925,63.609-132.935,63.609-132.935c-22.731,0.859-50.24-10.3-63.609-19.316
						C55.468,12.563,27.963,23.723,5.229,22.863C5.229,22.863-4.625,119.877,68.836,155.798z"/>
				</defs>
				<clipPath id="SVGID_6_">
					<use xlink:href="#SVGID_5_"  overflow="visible"/>
				</clipPath>
				<polygon opacity="0.7" clip-path="url(#SVGID_6_)" fill="#2B388F" enable-background="new    " points="-15.896,21.205 
					35.955,178.953 64.158,-19.604 				"/>
			</g>
		</g>
	</g>
	<g>
		<g>
			<g>
				<defs>
					<path id="SVGID_7_" d="M68.836,155.798c73.463-35.925,63.609-132.935,63.609-132.935c-22.731,0.859-50.24-10.3-63.609-19.316
						C55.468,12.563,27.963,23.723,5.229,22.863C5.229,22.863-4.625,119.877,68.836,155.798z"/>
				</defs>
				<clipPath id="SVGID_8_">
					<use xlink:href="#SVGID_7_"  overflow="visible"/>
				</clipPath>
				<polygon opacity="0.6" clip-path="url(#SVGID_8_)" fill="#1B75BB" enable-background="new    " points="65.757,-10.818 
					71.957,175.498 142.576,124.203 				"/>
			</g>
		</g>
	</g>
	<g>
		<g>
			<g>
				<defs>
					<path id="SVGID_9_" d="M68.836,155.798c73.463-35.925,63.609-132.935,63.609-132.935c-22.731,0.859-50.24-10.3-63.609-19.316
						C55.468,12.563,27.963,23.723,5.229,22.863C5.229,22.863-4.625,119.877,68.836,155.798z"/>
				</defs>
				<clipPath id="SVGID_10_">
					<use xlink:href="#SVGID_9_"  overflow="visible"/>
				</clipPath>
				<polygon opacity="0.6" clip-path="url(#SVGID_10_)" fill="#26A9E0" enable-background="new    " points="80.269,-7.774 
					57.704,174.348 84.567,180.795 				"/>
			</g>
		</g>
	</g>
	<g>
		<g>
			<g>
				<defs>
					<path id="SVGID_11_" d="M68.836,155.798c73.463-35.925,63.609-132.935,63.609-132.935c-22.731,0.859-50.24-10.3-63.609-19.316
						C55.468,12.563,27.963,23.723,5.229,22.863C5.229,22.863-4.625,119.877,68.836,155.798z"/>
				</defs>
				<clipPath id="SVGID_12_">
					<use xlink:href="#SVGID_11_"  overflow="visible"/>
				</clipPath>
				<polygon opacity="0.6" clip-path="url(#SVGID_12_)" fill="#1B75BB" enable-background="new    " points="74.359,-16.37 
					-15.896,125.432 37.827,155.798 				"/>
			</g>
		</g>
	</g>
	<g>
		<g>
			<g>
				<defs>
					<path id="SVGID_13_" d="M68.836,155.798c73.463-35.925,63.609-132.935,63.609-132.935c-22.731,0.859-50.24-10.3-63.609-19.316
						C55.468,12.563,27.963,23.723,5.229,22.863C5.229,22.863-4.625,119.877,68.836,155.798z"/>
				</defs>
				<clipPath id="SVGID_14_">
					<use xlink:href="#SVGID_13_"  overflow="visible"/>
				</clipPath>
				<polygon opacity="0.6" clip-path="url(#SVGID_14_)" fill="#26A9E0" enable-background="new    " points="104.436,166.139 
					60.633,-12.073 33.236,-8.527 				"/>
			</g>
		</g>
	</g>
	<g>
		<g>
			<g>
				<defs>
					<path id="SVGID_15_" d="M68.836,155.798c73.463-35.925,63.609-132.935,63.609-132.935c-22.731,0.859-50.24-10.3-63.609-19.316
						C55.468,12.563,27.963,23.723,5.229,22.863C5.229,22.863-4.625,119.877,68.836,155.798z"/>
				</defs>
				<clipPath id="SVGID_16_">
					<use xlink:href="#SVGID_15_"  overflow="visible"/>
				</clipPath>
				<polygon opacity="0.6" clip-path="url(#SVGID_16_)" fill="#26A9E0" enable-background="new    " points="76.953,-15.024 
					27.252,163.009 64.021,173.195 				"/>
			</g>
		</g>
	</g>
</g>
<g>
	<g>
		<g>
			<g>
				<defs>
					<path id="SVGID_17_" d="M170.96,97.782c0.87,2.018,2.136,3.618,3.797,4.805c1.661,1.187,3.636,2.038,5.931,2.552
						c2.293,0.514,4.786,0.771,7.475,0.771c1.898,0,3.796-0.237,5.695-0.711c1.898-0.477,3.619-1.188,5.161-2.137
						s2.806-2.174,3.796-3.677c0.988-1.503,1.483-3.321,1.483-5.458c0-2.056-0.634-3.736-1.898-5.043
						c-1.266-1.304-2.906-2.431-4.922-3.38c-2.017-0.95-4.312-1.78-6.882-2.491c-2.57-0.713-5.16-1.463-7.771-2.253
						c-2.69-0.792-5.299-1.74-7.83-2.848c-2.532-1.108-4.805-2.531-6.822-4.271c-2.016-1.74-3.639-3.875-4.864-6.407
						c-1.227-2.531-1.839-5.616-1.839-9.254c0-4.746,0.988-8.779,2.966-12.1c1.975-3.323,4.546-6.029,7.711-8.127
						c3.163-2.095,6.742-3.637,10.736-4.626c3.994-0.989,8.047-1.483,12.161-1.483c4.35,0,8.441,0.494,12.279,1.483
						c3.834,0.99,7.196,2.592,10.084,4.804c2.886,2.216,5.179,5.043,6.88,8.483c1.7,3.441,2.551,7.613,2.551,12.516h-17.677
						c0.079-2.373-0.257-4.369-1.009-5.991c-0.751-1.62-1.819-2.944-3.203-3.974c-1.384-1.027-3.025-1.759-4.923-2.193
						c-1.899-0.434-3.915-0.654-6.05-0.654c-1.742,0-3.5,0.178-5.28,0.533c-1.779,0.357-3.381,0.949-4.805,1.781
						c-1.423,0.83-2.571,1.918-3.44,3.262c-0.871,1.345-1.305,3.006-1.305,4.983c0,2.057,0.771,3.777,2.313,5.16
						c1.542,1.384,3.4,2.531,5.576,3.439c2.173,0.912,4.408,1.623,6.703,2.136c2.293,0.515,4.152,0.932,5.576,1.246
						c3.322,0.872,6.366,1.879,9.135,3.025c2.768,1.149,5.161,2.631,7.178,4.449c2.017,1.822,3.578,4.033,4.686,6.645
						c1.106,2.611,1.661,5.813,1.661,9.609c0,5.063-1.049,9.373-3.145,12.932c-2.096,3.561-4.786,6.447-8.067,8.66
						c-3.283,2.215-6.981,3.816-11.093,4.807c-4.113,0.988-8.186,1.48-12.22,1.48c-11.863,0-20.702-2.412-26.515-7.234
						c-5.814-4.824-8.72-12.416-8.72-22.778h17.677C169.733,93.256,170.089,95.766,170.96,97.782z M290.249,51.278
						c-2.81-2.65-6.465-3.976-10.974-3.976c-4.746,0-8.879,1.088-12.397,3.264c-3.521,2.175-6.405,4.982-8.66,8.422
						c-2.254,3.44-3.936,7.276-5.042,11.508c-1.109,4.232-1.661,8.365-1.661,12.396c0,2.93,0.374,5.694,1.126,8.307
						c0.751,2.609,1.898,4.923,3.44,6.939c1.542,2.018,3.519,3.618,5.933,4.807c2.411,1.186,5.317,1.777,8.719,1.777
						c2.531,0,4.926-0.453,7.18-1.363c2.256-0.907,4.252-2.135,5.99-3.678s3.203-3.342,4.393-5.399
						c1.188-2.056,1.977-4.188,2.371-6.406h18.627c-1.898,5.933-4.133,10.955-6.703,15.067c-2.568,4.113-5.458,7.455-8.66,10.022
						c-3.201,2.572-6.764,4.433-10.679,5.577c-3.914,1.146-8.166,1.721-12.753,1.721c-12.021,0-21.295-3.203-27.82-9.609
						c-6.525-6.407-9.787-15.66-9.787-27.762c0-6.879,1.067-13.404,3.202-19.576c2.135-6.168,5.2-11.607,9.195-16.312
						c3.993-4.705,8.857-8.442,14.593-11.213c5.73-2.767,12.16-4.151,19.279-4.151c4.898,0,9.445,0.673,13.642,2.016
						c4.191,1.348,7.812,3.344,10.854,5.993c3.045,2.651,5.396,5.932,7.06,9.846c1.662,3.916,2.45,8.445,2.373,13.585h-18.626
						C294.461,57.863,293.057,53.928,290.249,51.278z M352.236,33.658l-7.355,35.474h0.238l38.438-35.474h24.679l-40.691,34.88
						l25.979,49.828h-20.996l-19.341-38.082l-12.932,11.271l-5.574,26.812h-18.626l17.559-84.708L352.236,33.658L352.236,33.658z
						 M475.735,110.537c-1.898,3.32-4.491,5.714-7.771,7.177c-3.283,1.462-6.821,2.196-10.617,2.196
						c-7.436,0-13.188-2.154-17.263-6.467c-4.074-4.311-6.109-10.184-6.109-17.617c0-5.061,0.672-10.003,2.019-14.829
						c1.346-4.824,3.399-9.136,6.17-12.932c2.769-3.797,6.247-6.86,10.438-9.193s9.138-3.501,14.83-3.501
						c3.561,0,6.979,0.792,10.265,2.373c3.276,1.585,5.594,4.075,6.938,7.475h0.236l6.763-31.559h16.847l-17.914,84.708h-16.253
						l1.661-7.593L475.735,110.537z M460.963,70.556c-2.332,1.661-4.252,3.756-5.752,6.287c-1.504,2.534-2.61,5.3-3.322,8.306
						c-0.711,3.007-1.066,5.854-1.066,8.541c0,1.82,0.257,3.562,0.771,5.223c0.517,1.658,1.268,3.104,2.256,4.328
						c0.989,1.228,2.233,2.216,3.737,2.968c1.5,0.752,3.241,1.127,5.219,1.127c3.163,0,5.896-0.851,8.188-2.551
						c2.294-1.7,4.212-3.854,5.754-6.468c1.543-2.609,2.688-5.437,3.438-8.481c0.75-3.043,1.129-5.873,1.129-8.481
						c0-4.034-0.989-7.253-2.967-9.668c-1.979-2.411-5.021-3.618-9.137-3.618C466.044,68.064,463.296,68.895,460.963,70.556z
						 M407.36,115.045h-0.011l-0.698,3.32h3.675l0.699-3.32h-3.657H407.36z M414.709,115.045l0.777-3.677h-3.639l0.776-3.673h3.655
						h0.021l0.776-3.678h-3.653l0.778-3.675h-3.638l0.778-3.674h3.7l-0.784,3.674h3.613l-0.776,3.675h3.56l9.995-46.99h-16.965
						l-7.583,35.964h2.371l0.772-3.678h3.657l-0.771,3.678h-3.66L407.7,96.67h-2.371l-2.323,11.025h2.273h0.008h0.01l0.773-3.678
						h3.658l-0.773,3.678h-0.002l-0.775,3.673h3.633l-0.77,3.642h3.666l-0.71,3.355h3.604l0.706-3.32H414.709z M423.778,89.318
						h-3.675l0.774-3.672h3.674L423.778,89.318z M419.631,74.62h3.654l-0.773,3.676h-3.653L419.631,74.62z M409.994,85.646
						l0.771-3.679h3.658l-0.771,3.679H409.994z M401.466,115.011h2.22h0.01h0.008l0.771-3.642h-2.237L401.466,115.011z"/>
				</defs>
				<clipPath id="SVGID_18_">
					<use xlink:href="#SVGID_17_"  overflow="visible"/>
				</clipPath>
				<polygon opacity="0.7" clip-path="url(#SVGID_18_)" fill="#1B75BB" enable-background="new    " points="363.996,-101.122 
					151.804,256.387 572.774,-17.301 				"/>
			</g>
		</g>
	</g>
	<g>
		<g>
			<g>
				<defs>
					<path id="SVGID_19_" d="M170.96,97.782c0.87,2.018,2.136,3.618,3.797,4.805c1.661,1.187,3.636,2.038,5.931,2.552
						c2.293,0.514,4.786,0.771,7.475,0.771c1.898,0,3.796-0.237,5.695-0.711c1.898-0.477,3.619-1.188,5.161-2.137
						s2.806-2.174,3.796-3.677c0.988-1.503,1.483-3.321,1.483-5.458c0-2.056-0.634-3.736-1.898-5.043
						c-1.266-1.304-2.906-2.431-4.922-3.38c-2.017-0.95-4.312-1.78-6.882-2.491c-2.57-0.713-5.16-1.463-7.771-2.253
						c-2.69-0.792-5.299-1.74-7.83-2.848c-2.532-1.108-4.805-2.531-6.822-4.271c-2.016-1.74-3.639-3.875-4.864-6.407
						c-1.227-2.531-1.839-5.616-1.839-9.254c0-4.746,0.988-8.779,2.966-12.1c1.975-3.323,4.546-6.029,7.711-8.127
						c3.163-2.095,6.742-3.637,10.736-4.626c3.994-0.989,8.047-1.483,12.161-1.483c4.35,0,8.441,0.494,12.279,1.483
						c3.834,0.99,7.196,2.592,10.084,4.804c2.886,2.216,5.179,5.043,6.88,8.483c1.7,3.441,2.551,7.613,2.551,12.516h-17.677
						c0.079-2.373-0.257-4.369-1.009-5.991c-0.751-1.62-1.819-2.944-3.203-3.974c-1.384-1.027-3.025-1.759-4.923-2.193
						c-1.899-0.434-3.915-0.654-6.05-0.654c-1.742,0-3.5,0.178-5.28,0.533c-1.779,0.357-3.381,0.949-4.805,1.781
						c-1.423,0.83-2.571,1.918-3.44,3.262c-0.871,1.345-1.305,3.006-1.305,4.983c0,2.057,0.771,3.777,2.313,5.16
						c1.542,1.384,3.4,2.531,5.576,3.439c2.173,0.912,4.408,1.623,6.703,2.136c2.293,0.515,4.152,0.932,5.576,1.246
						c3.322,0.872,6.366,1.879,9.135,3.025c2.768,1.149,5.161,2.631,7.178,4.449c2.017,1.822,3.578,4.033,4.686,6.645
						c1.106,2.611,1.661,5.813,1.661,9.609c0,5.063-1.049,9.373-3.145,12.932c-2.096,3.561-4.786,6.447-8.067,8.66
						c-3.283,2.215-6.981,3.816-11.093,4.807c-4.113,0.988-8.186,1.48-12.22,1.48c-11.863,0-20.702-2.412-26.515-7.234
						c-5.814-4.824-8.72-12.416-8.72-22.778h17.677C169.733,93.256,170.089,95.766,170.96,97.782z M290.249,51.278
						c-2.81-2.65-6.465-3.976-10.974-3.976c-4.746,0-8.879,1.088-12.397,3.264c-3.521,2.175-6.405,4.982-8.66,8.422
						c-2.254,3.44-3.936,7.276-5.042,11.508c-1.109,4.232-1.661,8.365-1.661,12.396c0,2.93,0.374,5.694,1.126,8.307
						c0.751,2.609,1.898,4.923,3.44,6.939c1.542,2.018,3.519,3.618,5.933,4.807c2.411,1.186,5.317,1.777,8.719,1.777
						c2.531,0,4.926-0.453,7.18-1.363c2.256-0.907,4.252-2.135,5.99-3.678s3.203-3.342,4.393-5.399
						c1.188-2.056,1.977-4.188,2.371-6.406h18.627c-1.898,5.933-4.133,10.955-6.703,15.067c-2.568,4.113-5.458,7.455-8.66,10.022
						c-3.201,2.572-6.764,4.433-10.679,5.577c-3.914,1.146-8.166,1.721-12.753,1.721c-12.021,0-21.295-3.203-27.82-9.609
						c-6.525-6.407-9.787-15.66-9.787-27.762c0-6.879,1.067-13.404,3.202-19.576c2.135-6.168,5.2-11.607,9.195-16.312
						c3.993-4.705,8.857-8.442,14.593-11.213c5.73-2.767,12.16-4.151,19.279-4.151c4.898,0,9.445,0.673,13.642,2.016
						c4.191,1.348,7.812,3.344,10.854,5.993c3.045,2.651,5.396,5.932,7.06,9.846c1.662,3.916,2.45,8.445,2.373,13.585h-18.626
						C294.461,57.863,293.057,53.928,290.249,51.278z M352.236,33.658l-7.355,35.474h0.238l38.438-35.474h24.679l-40.691,34.88
						l25.979,49.828h-20.996l-19.341-38.082l-12.932,11.271l-5.574,26.812h-18.626l17.559-84.708L352.236,33.658L352.236,33.658z
						 M475.735,110.537c-1.898,3.32-4.491,5.714-7.771,7.177c-3.283,1.462-6.821,2.196-10.617,2.196
						c-7.436,0-13.188-2.154-17.263-6.467c-4.074-4.311-6.109-10.184-6.109-17.617c0-5.061,0.672-10.003,2.019-14.829
						c1.346-4.824,3.399-9.136,6.17-12.932c2.769-3.797,6.247-6.86,10.438-9.193s9.138-3.501,14.83-3.501
						c3.561,0,6.979,0.792,10.265,2.373c3.276,1.585,5.594,4.075,6.938,7.475h0.236l6.763-31.559h16.847l-17.914,84.708h-16.253
						l1.661-7.593L475.735,110.537z M460.963,70.556c-2.332,1.661-4.252,3.756-5.752,6.287c-1.504,2.534-2.61,5.3-3.322,8.306
						c-0.711,3.007-1.066,5.854-1.066,8.541c0,1.82,0.257,3.562,0.771,5.223c0.517,1.658,1.268,3.104,2.256,4.328
						c0.989,1.228,2.233,2.216,3.737,2.968c1.5,0.752,3.241,1.127,5.219,1.127c3.163,0,5.896-0.851,8.188-2.551
						c2.294-1.7,4.212-3.854,5.754-6.468c1.543-2.609,2.688-5.437,3.438-8.481c0.75-3.043,1.129-5.873,1.129-8.481
						c0-4.034-0.989-7.253-2.967-9.668c-1.979-2.411-5.021-3.618-9.137-3.618C466.044,68.064,463.296,68.895,460.963,70.556z
						 M407.36,115.045h-0.011l-0.698,3.32h3.675l0.699-3.32h-3.657H407.36z M414.709,115.045l0.777-3.677h-3.639l0.776-3.673h3.655
						h0.021l0.776-3.678h-3.653l0.778-3.675h-3.638l0.778-3.674h3.7l-0.784,3.674h3.613l-0.776,3.675h3.56l9.995-46.99h-16.965
						l-7.583,35.964h2.371l0.772-3.678h3.657l-0.771,3.678h-3.66L407.7,96.67h-2.371l-2.323,11.025h2.273h0.008h0.01l0.773-3.678
						h3.658l-0.773,3.678h-0.002l-0.775,3.673h3.633l-0.77,3.642h3.666l-0.71,3.355h3.604l0.706-3.32H414.709z M423.778,89.318
						h-3.675l0.774-3.672h3.674L423.778,89.318z M419.631,74.62h3.654l-0.773,3.676h-3.653L419.631,74.62z M409.994,85.646
						l0.771-3.679h3.658l-0.771,3.679H409.994z M401.466,115.011h2.22h0.01h0.008l0.771-3.642h-2.237L401.466,115.011z"/>
				</defs>
				<clipPath id="SVGID_20_">
					<use xlink:href="#SVGID_19_"  overflow="visible"/>
				</clipPath>
				<polygon opacity="0.7" clip-path="url(#SVGID_20_)" fill="#1B75BB" enable-background="new    " points="407.725,-28.024 
					244.221,354.214 625.688,27.711 				"/>
			</g>
		</g>
	</g>
	<g>
		<g>
			<g>
				<defs>
					<path id="SVGID_21_" d="M170.96,97.782c0.87,2.018,2.136,3.618,3.797,4.805c1.661,1.187,3.636,2.038,5.931,2.552
						c2.293,0.514,4.786,0.771,7.475,0.771c1.898,0,3.796-0.237,5.695-0.711c1.898-0.477,3.619-1.188,5.161-2.137
						s2.806-2.174,3.796-3.677c0.988-1.503,1.483-3.321,1.483-5.458c0-2.056-0.634-3.736-1.898-5.043
						c-1.266-1.304-2.906-2.431-4.922-3.38c-2.017-0.95-4.312-1.78-6.882-2.491c-2.57-0.713-5.16-1.463-7.771-2.253
						c-2.69-0.792-5.299-1.74-7.83-2.848c-2.532-1.108-4.805-2.531-6.822-4.271c-2.016-1.74-3.639-3.875-4.864-6.407
						c-1.227-2.531-1.839-5.616-1.839-9.254c0-4.746,0.988-8.779,2.966-12.1c1.975-3.323,4.546-6.029,7.711-8.127
						c3.163-2.095,6.742-3.637,10.736-4.626c3.994-0.989,8.047-1.483,12.161-1.483c4.35,0,8.441,0.494,12.279,1.483
						c3.834,0.99,7.196,2.592,10.084,4.804c2.886,2.216,5.179,5.043,6.88,8.483c1.7,3.441,2.551,7.613,2.551,12.516h-17.677
						c0.079-2.373-0.257-4.369-1.009-5.991c-0.751-1.62-1.819-2.944-3.203-3.974c-1.384-1.027-3.025-1.759-4.923-2.193
						c-1.899-0.434-3.915-0.654-6.05-0.654c-1.742,0-3.5,0.178-5.28,0.533c-1.779,0.357-3.381,0.949-4.805,1.781
						c-1.423,0.83-2.571,1.918-3.44,3.262c-0.871,1.345-1.305,3.006-1.305,4.983c0,2.057,0.771,3.777,2.313,5.16
						c1.542,1.384,3.4,2.531,5.576,3.439c2.173,0.912,4.408,1.623,6.703,2.136c2.293,0.515,4.152,0.932,5.576,1.246
						c3.322,0.872,6.366,1.879,9.135,3.025c2.768,1.149,5.161,2.631,7.178,4.449c2.017,1.822,3.578,4.033,4.686,6.645
						c1.106,2.611,1.661,5.813,1.661,9.609c0,5.063-1.049,9.373-3.145,12.932c-2.096,3.561-4.786,6.447-8.067,8.66
						c-3.283,2.215-6.981,3.816-11.093,4.807c-4.113,0.988-8.186,1.48-12.22,1.48c-11.863,0-20.702-2.412-26.515-7.234
						c-5.814-4.824-8.72-12.416-8.72-22.778h17.677C169.733,93.256,170.089,95.766,170.96,97.782z M290.249,51.278
						c-2.81-2.65-6.465-3.976-10.974-3.976c-4.746,0-8.879,1.088-12.397,3.264c-3.521,2.175-6.405,4.982-8.66,8.422
						c-2.254,3.44-3.936,7.276-5.042,11.508c-1.109,4.232-1.661,8.365-1.661,12.396c0,2.93,0.374,5.694,1.126,8.307
						c0.751,2.609,1.898,4.923,3.44,6.939c1.542,2.018,3.519,3.618,5.933,4.807c2.411,1.186,5.317,1.777,8.719,1.777
						c2.531,0,4.926-0.453,7.18-1.363c2.256-0.907,4.252-2.135,5.99-3.678s3.203-3.342,4.393-5.399
						c1.188-2.056,1.977-4.188,2.371-6.406h18.627c-1.898,5.933-4.133,10.955-6.703,15.067c-2.568,4.113-5.458,7.455-8.66,10.022
						c-3.201,2.572-6.764,4.433-10.679,5.577c-3.914,1.146-8.166,1.721-12.753,1.721c-12.021,0-21.295-3.203-27.82-9.609
						c-6.525-6.407-9.787-15.66-9.787-27.762c0-6.879,1.067-13.404,3.202-19.576c2.135-6.168,5.2-11.607,9.195-16.312
						c3.993-4.705,8.857-8.442,14.593-11.213c5.73-2.767,12.16-4.151,19.279-4.151c4.898,0,9.445,0.673,13.642,2.016
						c4.191,1.348,7.812,3.344,10.854,5.993c3.045,2.651,5.396,5.932,7.06,9.846c1.662,3.916,2.45,8.445,2.373,13.585h-18.626
						C294.461,57.863,293.057,53.928,290.249,51.278z M352.236,33.658l-7.355,35.474h0.238l38.438-35.474h24.679l-40.691,34.88
						l25.979,49.828h-20.996l-19.341-38.082l-12.932,11.271l-5.574,26.812h-18.626l17.559-84.708L352.236,33.658L352.236,33.658z
						 M475.735,110.537c-1.898,3.32-4.491,5.714-7.771,7.177c-3.283,1.462-6.821,2.196-10.617,2.196
						c-7.436,0-13.188-2.154-17.263-6.467c-4.074-4.311-6.109-10.184-6.109-17.617c0-5.061,0.672-10.003,2.019-14.829
						c1.346-4.824,3.399-9.136,6.17-12.932c2.769-3.797,6.247-6.86,10.438-9.193s9.138-3.501,14.83-3.501
						c3.561,0,6.979,0.792,10.265,2.373c3.276,1.585,5.594,4.075,6.938,7.475h0.236l6.763-31.559h16.847l-17.914,84.708h-16.253
						l1.661-7.593L475.735,110.537z M460.963,70.556c-2.332,1.661-4.252,3.756-5.752,6.287c-1.504,2.534-2.61,5.3-3.322,8.306
						c-0.711,3.007-1.066,5.854-1.066,8.541c0,1.82,0.257,3.562,0.771,5.223c0.517,1.658,1.268,3.104,2.256,4.328
						c0.989,1.228,2.233,2.216,3.737,2.968c1.5,0.752,3.241,1.127,5.219,1.127c3.163,0,5.896-0.851,8.188-2.551
						c2.294-1.7,4.212-3.854,5.754-6.468c1.543-2.609,2.688-5.437,3.438-8.481c0.75-3.043,1.129-5.873,1.129-8.481
						c0-4.034-0.989-7.253-2.967-9.668c-1.979-2.411-5.021-3.618-9.137-3.618C466.044,68.064,463.296,68.895,460.963,70.556z
						 M407.36,115.045h-0.011l-0.698,3.32h3.675l0.699-3.32h-3.657H407.36z M414.709,115.045l0.777-3.677h-3.639l0.776-3.673h3.655
						h0.021l0.776-3.678h-3.653l0.778-3.675h-3.638l0.778-3.674h3.7l-0.784,3.674h3.613l-0.776,3.675h3.56l9.995-46.99h-16.965
						l-7.583,35.964h2.371l0.772-3.678h3.657l-0.771,3.678h-3.66L407.7,96.67h-2.371l-2.323,11.025h2.273h0.008h0.01l0.773-3.678
						h3.658l-0.773,3.678h-0.002l-0.775,3.673h3.633l-0.77,3.642h3.666l-0.71,3.355h3.604l0.706-3.32H414.709z M423.778,89.318
						h-3.675l0.774-3.672h3.674L423.778,89.318z M419.631,74.62h3.654l-0.773,3.676h-3.653L419.631,74.62z M409.994,85.646
						l0.771-3.679h3.658l-0.771,3.679H409.994z M401.466,115.011h2.22h0.01h0.008l0.771-3.642h-2.237L401.466,115.011z"/>
				</defs>
				<clipPath id="SVGID_22_">
					<use xlink:href="#SVGID_21_"  overflow="visible"/>
				</clipPath>
				<polygon opacity="0.7" clip-path="url(#SVGID_22_)" fill="#1B75BB" enable-background="new    " points="91.28,-28.566 
					221.097,366.386 291.716,-130.743 				"/>
			</g>
		</g>
	</g>
	<g>
		<g>
			<g>
				<defs>
					<path id="SVGID_23_" d="M170.96,97.782c0.87,2.018,2.136,3.618,3.797,4.805c1.661,1.187,3.636,2.038,5.931,2.552
						c2.293,0.514,4.786,0.771,7.475,0.771c1.898,0,3.796-0.237,5.695-0.711c1.898-0.477,3.619-1.188,5.161-2.137
						s2.806-2.174,3.796-3.677c0.988-1.503,1.483-3.321,1.483-5.458c0-2.056-0.634-3.736-1.898-5.043
						c-1.266-1.304-2.906-2.431-4.922-3.38c-2.017-0.95-4.312-1.78-6.882-2.491c-2.57-0.713-5.16-1.463-7.771-2.253
						c-2.69-0.792-5.299-1.74-7.83-2.848c-2.532-1.108-4.805-2.531-6.822-4.271c-2.016-1.74-3.639-3.875-4.864-6.407
						c-1.227-2.531-1.839-5.616-1.839-9.254c0-4.746,0.988-8.779,2.966-12.1c1.975-3.323,4.546-6.029,7.711-8.127
						c3.163-2.095,6.742-3.637,10.736-4.626c3.994-0.989,8.047-1.483,12.161-1.483c4.35,0,8.441,0.494,12.279,1.483
						c3.834,0.99,7.196,2.592,10.084,4.804c2.886,2.216,5.179,5.043,6.88,8.483c1.7,3.441,2.551,7.613,2.551,12.516h-17.677
						c0.079-2.373-0.257-4.369-1.009-5.991c-0.751-1.62-1.819-2.944-3.203-3.974c-1.384-1.027-3.025-1.759-4.923-2.193
						c-1.899-0.434-3.915-0.654-6.05-0.654c-1.742,0-3.5,0.178-5.28,0.533c-1.779,0.357-3.381,0.949-4.805,1.781
						c-1.423,0.83-2.571,1.918-3.44,3.262c-0.871,1.345-1.305,3.006-1.305,4.983c0,2.057,0.771,3.777,2.313,5.16
						c1.542,1.384,3.4,2.531,5.576,3.439c2.173,0.912,4.408,1.623,6.703,2.136c2.293,0.515,4.152,0.932,5.576,1.246
						c3.322,0.872,6.366,1.879,9.135,3.025c2.768,1.149,5.161,2.631,7.178,4.449c2.017,1.822,3.578,4.033,4.686,6.645
						c1.106,2.611,1.661,5.813,1.661,9.609c0,5.063-1.049,9.373-3.145,12.932c-2.096,3.561-4.786,6.447-8.067,8.66
						c-3.283,2.215-6.981,3.816-11.093,4.807c-4.113,0.988-8.186,1.48-12.22,1.48c-11.863,0-20.702-2.412-26.515-7.234
						c-5.814-4.824-8.72-12.416-8.72-22.778h17.677C169.733,93.256,170.089,95.766,170.96,97.782z M290.249,51.278
						c-2.81-2.65-6.465-3.976-10.974-3.976c-4.746,0-8.879,1.088-12.397,3.264c-3.521,2.175-6.405,4.982-8.66,8.422
						c-2.254,3.44-3.936,7.276-5.042,11.508c-1.109,4.232-1.661,8.365-1.661,12.396c0,2.93,0.374,5.694,1.126,8.307
						c0.751,2.609,1.898,4.923,3.44,6.939c1.542,2.018,3.519,3.618,5.933,4.807c2.411,1.186,5.317,1.777,8.719,1.777
						c2.531,0,4.926-0.453,7.18-1.363c2.256-0.907,4.252-2.135,5.99-3.678s3.203-3.342,4.393-5.399
						c1.188-2.056,1.977-4.188,2.371-6.406h18.627c-1.898,5.933-4.133,10.955-6.703,15.067c-2.568,4.113-5.458,7.455-8.66,10.022
						c-3.201,2.572-6.764,4.433-10.679,5.577c-3.914,1.146-8.166,1.721-12.753,1.721c-12.021,0-21.295-3.203-27.82-9.609
						c-6.525-6.407-9.787-15.66-9.787-27.762c0-6.879,1.067-13.404,3.202-19.576c2.135-6.168,5.2-11.607,9.195-16.312
						c3.993-4.705,8.857-8.442,14.593-11.213c5.73-2.767,12.16-4.151,19.279-4.151c4.898,0,9.445,0.673,13.642,2.016
						c4.191,1.348,7.812,3.344,10.854,5.993c3.045,2.651,5.396,5.932,7.06,9.846c1.662,3.916,2.45,8.445,2.373,13.585h-18.626
						C294.461,57.863,293.057,53.928,290.249,51.278z M352.236,33.658l-7.355,35.474h0.238l38.438-35.474h24.679l-40.691,34.88
						l25.979,49.828h-20.996l-19.341-38.082l-12.932,11.271l-5.574,26.812h-18.626l17.559-84.708L352.236,33.658L352.236,33.658z
						 M475.735,110.537c-1.898,3.32-4.491,5.714-7.771,7.177c-3.283,1.462-6.821,2.196-10.617,2.196
						c-7.436,0-13.188-2.154-17.263-6.467c-4.074-4.311-6.109-10.184-6.109-17.617c0-5.061,0.672-10.003,2.019-14.829
						c1.346-4.824,3.399-9.136,6.17-12.932c2.769-3.797,6.247-6.86,10.438-9.193s9.138-3.501,14.83-3.501
						c3.561,0,6.979,0.792,10.265,2.373c3.276,1.585,5.594,4.075,6.938,7.475h0.236l6.763-31.559h16.847l-17.914,84.708h-16.253
						l1.661-7.593L475.735,110.537z M460.963,70.556c-2.332,1.661-4.252,3.756-5.752,6.287c-1.504,2.534-2.61,5.3-3.322,8.306
						c-0.711,3.007-1.066,5.854-1.066,8.541c0,1.82,0.257,3.562,0.771,5.223c0.517,1.658,1.268,3.104,2.256,4.328
						c0.989,1.228,2.233,2.216,3.737,2.968c1.5,0.752,3.241,1.127,5.219,1.127c3.163,0,5.896-0.851,8.188-2.551
						c2.294-1.7,4.212-3.854,5.754-6.468c1.543-2.609,2.688-5.437,3.438-8.481c0.75-3.043,1.129-5.873,1.129-8.481
						c0-4.034-0.989-7.253-2.967-9.668c-1.979-2.411-5.021-3.618-9.137-3.618C466.044,68.064,463.296,68.895,460.963,70.556z
						 M407.36,115.045h-0.011l-0.698,3.32h3.675l0.699-3.32h-3.657H407.36z M414.709,115.045l0.777-3.677h-3.639l0.776-3.673h3.655
						h0.021l0.776-3.678h-3.653l0.778-3.675h-3.638l0.778-3.674h3.7l-0.784,3.674h3.613l-0.776,3.675h3.56l9.995-46.99h-16.965
						l-7.583,35.964h2.371l0.772-3.678h3.657l-0.771,3.678h-3.66L407.7,96.67h-2.371l-2.323,11.025h2.273h0.008h0.01l0.773-3.678
						h3.658l-0.773,3.678h-0.002l-0.775,3.673h3.633l-0.77,3.642h3.666l-0.71,3.355h3.604l0.706-3.32H414.709z M423.778,89.318
						h-3.675l0.774-3.672h3.674L423.778,89.318z M419.631,74.62h3.654l-0.773,3.676h-3.653L419.631,74.62z M409.994,85.646
						l0.771-3.679h3.658l-0.771,3.679H409.994z M401.466,115.011h2.22h0.01h0.008l0.771-3.642h-2.237L401.466,115.011z"/>
				</defs>
				<clipPath id="SVGID_24_">
					<use xlink:href="#SVGID_23_"  overflow="visible"/>
				</clipPath>
				<polygon opacity="0.6" clip-path="url(#SVGID_24_)" fill="#26A9E0" enable-background="new    " points="295.716,-108.746 
					311.235,357.736 488.047,229.311 				"/>
			</g>
		</g>
	</g>
	<g>
		<g>
			<g>
				<defs>
					<path id="SVGID_25_" d="M170.96,97.782c0.87,2.018,2.136,3.618,3.797,4.805c1.661,1.187,3.636,2.038,5.931,2.552
						c2.293,0.514,4.786,0.771,7.475,0.771c1.898,0,3.796-0.237,5.695-0.711c1.898-0.477,3.619-1.188,5.161-2.137
						s2.806-2.174,3.796-3.677c0.988-1.503,1.483-3.321,1.483-5.458c0-2.056-0.634-3.736-1.898-5.043
						c-1.266-1.304-2.906-2.431-4.922-3.38c-2.017-0.95-4.312-1.78-6.882-2.491c-2.57-0.713-5.16-1.463-7.771-2.253
						c-2.69-0.792-5.299-1.74-7.83-2.848c-2.532-1.108-4.805-2.531-6.822-4.271c-2.016-1.74-3.639-3.875-4.864-6.407
						c-1.227-2.531-1.839-5.616-1.839-9.254c0-4.746,0.988-8.779,2.966-12.1c1.975-3.323,4.546-6.029,7.711-8.127
						c3.163-2.095,6.742-3.637,10.736-4.626c3.994-0.989,8.047-1.483,12.161-1.483c4.35,0,8.441,0.494,12.279,1.483
						c3.834,0.99,7.196,2.592,10.084,4.804c2.886,2.216,5.179,5.043,6.88,8.483c1.7,3.441,2.551,7.613,2.551,12.516h-17.677
						c0.079-2.373-0.257-4.369-1.009-5.991c-0.751-1.62-1.819-2.944-3.203-3.974c-1.384-1.027-3.025-1.759-4.923-2.193
						c-1.899-0.434-3.915-0.654-6.05-0.654c-1.742,0-3.5,0.178-5.28,0.533c-1.779,0.357-3.381,0.949-4.805,1.781
						c-1.423,0.83-2.571,1.918-3.44,3.262c-0.871,1.345-1.305,3.006-1.305,4.983c0,2.057,0.771,3.777,2.313,5.16
						c1.542,1.384,3.4,2.531,5.576,3.439c2.173,0.912,4.408,1.623,6.703,2.136c2.293,0.515,4.152,0.932,5.576,1.246
						c3.322,0.872,6.366,1.879,9.135,3.025c2.768,1.149,5.161,2.631,7.178,4.449c2.017,1.822,3.578,4.033,4.686,6.645
						c1.106,2.611,1.661,5.813,1.661,9.609c0,5.063-1.049,9.373-3.145,12.932c-2.096,3.561-4.786,6.447-8.067,8.66
						c-3.283,2.215-6.981,3.816-11.093,4.807c-4.113,0.988-8.186,1.48-12.22,1.48c-11.863,0-20.702-2.412-26.515-7.234
						c-5.814-4.824-8.72-12.416-8.72-22.778h17.677C169.733,93.256,170.089,95.766,170.96,97.782z M290.249,51.278
						c-2.81-2.65-6.465-3.976-10.974-3.976c-4.746,0-8.879,1.088-12.397,3.264c-3.521,2.175-6.405,4.982-8.66,8.422
						c-2.254,3.44-3.936,7.276-5.042,11.508c-1.109,4.232-1.661,8.365-1.661,12.396c0,2.93,0.374,5.694,1.126,8.307
						c0.751,2.609,1.898,4.923,3.44,6.939c1.542,2.018,3.519,3.618,5.933,4.807c2.411,1.186,5.317,1.777,8.719,1.777
						c2.531,0,4.926-0.453,7.18-1.363c2.256-0.907,4.252-2.135,5.99-3.678s3.203-3.342,4.393-5.399
						c1.188-2.056,1.977-4.188,2.371-6.406h18.627c-1.898,5.933-4.133,10.955-6.703,15.067c-2.568,4.113-5.458,7.455-8.66,10.022
						c-3.201,2.572-6.764,4.433-10.679,5.577c-3.914,1.146-8.166,1.721-12.753,1.721c-12.021,0-21.295-3.203-27.82-9.609
						c-6.525-6.407-9.787-15.66-9.787-27.762c0-6.879,1.067-13.404,3.202-19.576c2.135-6.168,5.2-11.607,9.195-16.312
						c3.993-4.705,8.857-8.442,14.593-11.213c5.73-2.767,12.16-4.151,19.279-4.151c4.898,0,9.445,0.673,13.642,2.016
						c4.191,1.348,7.812,3.344,10.854,5.993c3.045,2.651,5.396,5.932,7.06,9.846c1.662,3.916,2.45,8.445,2.373,13.585h-18.626
						C294.461,57.863,293.057,53.928,290.249,51.278z M352.236,33.658l-7.355,35.474h0.238l38.438-35.474h24.679l-40.691,34.88
						l25.979,49.828h-20.996l-19.341-38.082l-12.932,11.271l-5.574,26.812h-18.626l17.559-84.708L352.236,33.658L352.236,33.658z
						 M475.735,110.537c-1.898,3.32-4.491,5.714-7.771,7.177c-3.283,1.462-6.821,2.196-10.617,2.196
						c-7.436,0-13.188-2.154-17.263-6.467c-4.074-4.311-6.109-10.184-6.109-17.617c0-5.061,0.672-10.003,2.019-14.829
						c1.346-4.824,3.399-9.136,6.17-12.932c2.769-3.797,6.247-6.86,10.438-9.193s9.138-3.501,14.83-3.501
						c3.561,0,6.979,0.792,10.265,2.373c3.276,1.585,5.594,4.075,6.938,7.475h0.236l6.763-31.559h16.847l-17.914,84.708h-16.253
						l1.661-7.593L475.735,110.537z M460.963,70.556c-2.332,1.661-4.252,3.756-5.752,6.287c-1.504,2.534-2.61,5.3-3.322,8.306
						c-0.711,3.007-1.066,5.854-1.066,8.541c0,1.82,0.257,3.562,0.771,5.223c0.517,1.658,1.268,3.104,2.256,4.328
						c0.989,1.228,2.233,2.216,3.737,2.968c1.5,0.752,3.241,1.127,5.219,1.127c3.163,0,5.896-0.851,8.188-2.551
						c2.294-1.7,4.212-3.854,5.754-6.468c1.543-2.609,2.688-5.437,3.438-8.481c0.75-3.043,1.129-5.873,1.129-8.481
						c0-4.034-0.989-7.253-2.967-9.668c-1.979-2.411-5.021-3.618-9.137-3.618C466.044,68.064,463.296,68.895,460.963,70.556z
						 M407.36,115.045h-0.011l-0.698,3.32h3.675l0.699-3.32h-3.657H407.36z M414.709,115.045l0.777-3.677h-3.639l0.776-3.673h3.655
						h0.021l0.776-3.678h-3.653l0.778-3.675h-3.638l0.778-3.674h3.7l-0.784,3.674h3.613l-0.776,3.675h3.56l9.995-46.99h-16.965
						l-7.583,35.964h2.371l0.772-3.678h3.657l-0.771,3.678h-3.66L407.7,96.67h-2.371l-2.323,11.025h2.273h0.008h0.01l0.773-3.678
						h3.658l-0.773,3.678h-0.002l-0.775,3.673h3.633l-0.77,3.642h3.666l-0.71,3.355h3.604l0.706-3.32H414.709z M423.778,89.318
						h-3.675l0.774-3.672h3.674L423.778,89.318z M419.631,74.62h3.654l-0.773,3.676h-3.653L419.631,74.62z M409.994,85.646
						l0.771-3.679h3.658l-0.771,3.679H409.994z M401.466,115.011h2.22h0.01h0.008l0.771-3.642h-2.237L401.466,115.011z"/>
				</defs>
				<clipPath id="SVGID_26_">
					<use xlink:href="#SVGID_25_"  overflow="visible"/>
				</clipPath>
				<polygon opacity="0.6" clip-path="url(#SVGID_26_)" fill="#2B388F" enable-background="new    " points="332.048,-101.122 
					275.555,354.861 342.81,371 				"/>
			</g>
		</g>
	</g>
	<g>
		<g>
			<g>
				<defs>
					<path id="SVGID_27_" d="M170.96,97.782c0.87,2.018,2.136,3.618,3.797,4.805c1.661,1.187,3.636,2.038,5.931,2.552
						c2.293,0.514,4.786,0.771,7.475,0.771c1.898,0,3.796-0.237,5.695-0.711c1.898-0.477,3.619-1.188,5.161-2.137
						s2.806-2.174,3.796-3.677c0.988-1.503,1.483-3.321,1.483-5.458c0-2.056-0.634-3.736-1.898-5.043
						c-1.266-1.304-2.906-2.431-4.922-3.38c-2.017-0.95-4.312-1.78-6.882-2.491c-2.57-0.713-5.16-1.463-7.771-2.253
						c-2.69-0.792-5.299-1.74-7.83-2.848c-2.532-1.108-4.805-2.531-6.822-4.271c-2.016-1.74-3.639-3.875-4.864-6.407
						c-1.227-2.531-1.839-5.616-1.839-9.254c0-4.746,0.988-8.779,2.966-12.1c1.975-3.323,4.546-6.029,7.711-8.127
						c3.163-2.095,6.742-3.637,10.736-4.626c3.994-0.989,8.047-1.483,12.161-1.483c4.35,0,8.441,0.494,12.279,1.483
						c3.834,0.99,7.196,2.592,10.084,4.804c2.886,2.216,5.179,5.043,6.88,8.483c1.7,3.441,2.551,7.613,2.551,12.516h-17.677
						c0.079-2.373-0.257-4.369-1.009-5.991c-0.751-1.62-1.819-2.944-3.203-3.974c-1.384-1.027-3.025-1.759-4.923-2.193
						c-1.899-0.434-3.915-0.654-6.05-0.654c-1.742,0-3.5,0.178-5.28,0.533c-1.779,0.357-3.381,0.949-4.805,1.781
						c-1.423,0.83-2.571,1.918-3.44,3.262c-0.871,1.345-1.305,3.006-1.305,4.983c0,2.057,0.771,3.777,2.313,5.16
						c1.542,1.384,3.4,2.531,5.576,3.439c2.173,0.912,4.408,1.623,6.703,2.136c2.293,0.515,4.152,0.932,5.576,1.246
						c3.322,0.872,6.366,1.879,9.135,3.025c2.768,1.149,5.161,2.631,7.178,4.449c2.017,1.822,3.578,4.033,4.686,6.645
						c1.106,2.611,1.661,5.813,1.661,9.609c0,5.063-1.049,9.373-3.145,12.932c-2.096,3.561-4.786,6.447-8.067,8.66
						c-3.283,2.215-6.981,3.816-11.093,4.807c-4.113,0.988-8.186,1.48-12.22,1.48c-11.863,0-20.702-2.412-26.515-7.234
						c-5.814-4.824-8.72-12.416-8.72-22.778h17.677C169.733,93.256,170.089,95.766,170.96,97.782z M290.249,51.278
						c-2.81-2.65-6.465-3.976-10.974-3.976c-4.746,0-8.879,1.088-12.397,3.264c-3.521,2.175-6.405,4.982-8.66,8.422
						c-2.254,3.44-3.936,7.276-5.042,11.508c-1.109,4.232-1.661,8.365-1.661,12.396c0,2.93,0.374,5.694,1.126,8.307
						c0.751,2.609,1.898,4.923,3.44,6.939c1.542,2.018,3.519,3.618,5.933,4.807c2.411,1.186,5.317,1.777,8.719,1.777
						c2.531,0,4.926-0.453,7.18-1.363c2.256-0.907,4.252-2.135,5.99-3.678s3.203-3.342,4.393-5.399
						c1.188-2.056,1.977-4.188,2.371-6.406h18.627c-1.898,5.933-4.133,10.955-6.703,15.067c-2.568,4.113-5.458,7.455-8.66,10.022
						c-3.201,2.572-6.764,4.433-10.679,5.577c-3.914,1.146-8.166,1.721-12.753,1.721c-12.021,0-21.295-3.203-27.82-9.609
						c-6.525-6.407-9.787-15.66-9.787-27.762c0-6.879,1.067-13.404,3.202-19.576c2.135-6.168,5.2-11.607,9.195-16.312
						c3.993-4.705,8.857-8.442,14.593-11.213c5.73-2.767,12.16-4.151,19.279-4.151c4.898,0,9.445,0.673,13.642,2.016
						c4.191,1.348,7.812,3.344,10.854,5.993c3.045,2.651,5.396,5.932,7.06,9.846c1.662,3.916,2.45,8.445,2.373,13.585h-18.626
						C294.461,57.863,293.057,53.928,290.249,51.278z M352.236,33.658l-7.355,35.474h0.238l38.438-35.474h24.679l-40.691,34.88
						l25.979,49.828h-20.996l-19.341-38.082l-12.932,11.271l-5.574,26.812h-18.626l17.559-84.708L352.236,33.658L352.236,33.658z
						 M475.735,110.537c-1.898,3.32-4.491,5.714-7.771,7.177c-3.283,1.462-6.821,2.196-10.617,2.196
						c-7.436,0-13.188-2.154-17.263-6.467c-4.074-4.311-6.109-10.184-6.109-17.617c0-5.061,0.672-10.003,2.019-14.829
						c1.346-4.824,3.399-9.136,6.17-12.932c2.769-3.797,6.247-6.86,10.438-9.193s9.138-3.501,14.83-3.501
						c3.561,0,6.979,0.792,10.265,2.373c3.276,1.585,5.594,4.075,6.938,7.475h0.236l6.763-31.559h16.847l-17.914,84.708h-16.253
						l1.661-7.593L475.735,110.537z M460.963,70.556c-2.332,1.661-4.252,3.756-5.752,6.287c-1.504,2.534-2.61,5.3-3.322,8.306
						c-0.711,3.007-1.066,5.854-1.066,8.541c0,1.82,0.257,3.562,0.771,5.223c0.517,1.658,1.268,3.104,2.256,4.328
						c0.989,1.228,2.233,2.216,3.737,2.968c1.5,0.752,3.241,1.127,5.219,1.127c3.163,0,5.896-0.851,8.188-2.551
						c2.294-1.7,4.212-3.854,5.754-6.468c1.543-2.609,2.688-5.437,3.438-8.481c0.75-3.043,1.129-5.873,1.129-8.481
						c0-4.034-0.989-7.253-2.967-9.668c-1.979-2.411-5.021-3.618-9.137-3.618C466.044,68.064,463.296,68.895,460.963,70.556z
						 M407.36,115.045h-0.011l-0.698,3.32h3.675l0.699-3.32h-3.657H407.36z M414.709,115.045l0.777-3.677h-3.639l0.776-3.673h3.655
						h0.021l0.776-3.678h-3.653l0.778-3.675h-3.638l0.778-3.674h3.7l-0.784,3.674h3.613l-0.776,3.675h3.56l9.995-46.99h-16.965
						l-7.583,35.964h2.371l0.772-3.678h3.657l-0.771,3.678h-3.66L407.7,96.67h-2.371l-2.323,11.025h2.273h0.008h0.01l0.773-3.678
						h3.658l-0.773,3.678h-0.002l-0.775,3.673h3.633l-0.77,3.642h3.666l-0.71,3.355h3.604l0.706-3.32H414.709z M423.778,89.318
						h-3.675l0.774-3.672h3.674L423.778,89.318z M419.631,74.62h3.654l-0.773,3.676h-3.653L419.631,74.62z M409.994,85.646
						l0.771-3.679h3.658l-0.771,3.679H409.994z M401.466,115.011h2.22h0.01h0.008l0.771-3.642h-2.237L401.466,115.011z"/>
				</defs>
				<clipPath id="SVGID_28_">
					<use xlink:href="#SVGID_27_"  overflow="visible"/>
				</clipPath>
				<polygon opacity="0.6" clip-path="url(#SVGID_28_)" fill="#26A9E0" enable-background="new    " points="317.254,-122.646 
					91.28,232.381 225.787,308.416 				"/>
			</g>
		</g>
	</g>
	<g>
		<g>
			<g>
				<defs>
					<path id="SVGID_29_" d="M170.96,97.782c0.87,2.018,2.136,3.618,3.797,4.805c1.661,1.187,3.636,2.038,5.931,2.552
						c2.293,0.514,4.786,0.771,7.475,0.771c1.898,0,3.796-0.237,5.695-0.711c1.898-0.477,3.619-1.188,5.161-2.137
						s2.806-2.174,3.796-3.677c0.988-1.503,1.483-3.321,1.483-5.458c0-2.056-0.634-3.736-1.898-5.043
						c-1.266-1.304-2.906-2.431-4.922-3.38c-2.017-0.95-4.312-1.78-6.882-2.491c-2.57-0.713-5.16-1.463-7.771-2.253
						c-2.69-0.792-5.299-1.74-7.83-2.848c-2.532-1.108-4.805-2.531-6.822-4.271c-2.016-1.74-3.639-3.875-4.864-6.407
						c-1.227-2.531-1.839-5.616-1.839-9.254c0-4.746,0.988-8.779,2.966-12.1c1.975-3.323,4.546-6.029,7.711-8.127
						c3.163-2.095,6.742-3.637,10.736-4.626c3.994-0.989,8.047-1.483,12.161-1.483c4.35,0,8.441,0.494,12.279,1.483
						c3.834,0.99,7.196,2.592,10.084,4.804c2.886,2.216,5.179,5.043,6.88,8.483c1.7,3.441,2.551,7.613,2.551,12.516h-17.677
						c0.079-2.373-0.257-4.369-1.009-5.991c-0.751-1.62-1.819-2.944-3.203-3.974c-1.384-1.027-3.025-1.759-4.923-2.193
						c-1.899-0.434-3.915-0.654-6.05-0.654c-1.742,0-3.5,0.178-5.28,0.533c-1.779,0.357-3.381,0.949-4.805,1.781
						c-1.423,0.83-2.571,1.918-3.44,3.262c-0.871,1.345-1.305,3.006-1.305,4.983c0,2.057,0.771,3.777,2.313,5.16
						c1.542,1.384,3.4,2.531,5.576,3.439c2.173,0.912,4.408,1.623,6.703,2.136c2.293,0.515,4.152,0.932,5.576,1.246
						c3.322,0.872,6.366,1.879,9.135,3.025c2.768,1.149,5.161,2.631,7.178,4.449c2.017,1.822,3.578,4.033,4.686,6.645
						c1.106,2.611,1.661,5.813,1.661,9.609c0,5.063-1.049,9.373-3.145,12.932c-2.096,3.561-4.786,6.447-8.067,8.66
						c-3.283,2.215-6.981,3.816-11.093,4.807c-4.113,0.988-8.186,1.48-12.22,1.48c-11.863,0-20.702-2.412-26.515-7.234
						c-5.814-4.824-8.72-12.416-8.72-22.778h17.677C169.733,93.256,170.089,95.766,170.96,97.782z M290.249,51.278
						c-2.81-2.65-6.465-3.976-10.974-3.976c-4.746,0-8.879,1.088-12.397,3.264c-3.521,2.175-6.405,4.982-8.66,8.422
						c-2.254,3.44-3.936,7.276-5.042,11.508c-1.109,4.232-1.661,8.365-1.661,12.396c0,2.93,0.374,5.694,1.126,8.307
						c0.751,2.609,1.898,4.923,3.44,6.939c1.542,2.018,3.519,3.618,5.933,4.807c2.411,1.186,5.317,1.777,8.719,1.777
						c2.531,0,4.926-0.453,7.18-1.363c2.256-0.907,4.252-2.135,5.99-3.678s3.203-3.342,4.393-5.399
						c1.188-2.056,1.977-4.188,2.371-6.406h18.627c-1.898,5.933-4.133,10.955-6.703,15.067c-2.568,4.113-5.458,7.455-8.66,10.022
						c-3.201,2.572-6.764,4.433-10.679,5.577c-3.914,1.146-8.166,1.721-12.753,1.721c-12.021,0-21.295-3.203-27.82-9.609
						c-6.525-6.407-9.787-15.66-9.787-27.762c0-6.879,1.067-13.404,3.202-19.576c2.135-6.168,5.2-11.607,9.195-16.312
						c3.993-4.705,8.857-8.442,14.593-11.213c5.73-2.767,12.16-4.151,19.279-4.151c4.898,0,9.445,0.673,13.642,2.016
						c4.191,1.348,7.812,3.344,10.854,5.993c3.045,2.651,5.396,5.932,7.06,9.846c1.662,3.916,2.45,8.445,2.373,13.585h-18.626
						C294.461,57.863,293.057,53.928,290.249,51.278z M352.236,33.658l-7.355,35.474h0.238l38.438-35.474h24.679l-40.691,34.88
						l25.979,49.828h-20.996l-19.341-38.082l-12.932,11.271l-5.574,26.812h-18.626l17.559-84.708L352.236,33.658L352.236,33.658z
						 M475.735,110.537c-1.898,3.32-4.491,5.714-7.771,7.177c-3.283,1.462-6.821,2.196-10.617,2.196
						c-7.436,0-13.188-2.154-17.263-6.467c-4.074-4.311-6.109-10.184-6.109-17.617c0-5.061,0.672-10.003,2.019-14.829
						c1.346-4.824,3.399-9.136,6.17-12.932c2.769-3.797,6.247-6.86,10.438-9.193s9.138-3.501,14.83-3.501
						c3.561,0,6.979,0.792,10.265,2.373c3.276,1.585,5.594,4.075,6.938,7.475h0.236l6.763-31.559h16.847l-17.914,84.708h-16.253
						l1.661-7.593L475.735,110.537z M460.963,70.556c-2.332,1.661-4.252,3.756-5.752,6.287c-1.504,2.534-2.61,5.3-3.322,8.306
						c-0.711,3.007-1.066,5.854-1.066,8.541c0,1.82,0.257,3.562,0.771,5.223c0.517,1.658,1.268,3.104,2.256,4.328
						c0.989,1.228,2.233,2.216,3.737,2.968c1.5,0.752,3.241,1.127,5.219,1.127c3.163,0,5.896-0.851,8.188-2.551
						c2.294-1.7,4.212-3.854,5.754-6.468c1.543-2.609,2.688-5.437,3.438-8.481c0.75-3.043,1.129-5.873,1.129-8.481
						c0-4.034-0.989-7.253-2.967-9.668c-1.979-2.411-5.021-3.618-9.137-3.618C466.044,68.064,463.296,68.895,460.963,70.556z
						 M407.36,115.045h-0.011l-0.698,3.32h3.675l0.699-3.32h-3.657H407.36z M414.709,115.045l0.777-3.677h-3.639l0.776-3.673h3.655
						h0.021l0.776-3.678h-3.653l0.778-3.675h-3.638l0.778-3.674h3.7l-0.784,3.674h3.613l-0.776,3.675h3.56l9.995-46.99h-16.965
						l-7.583,35.964h2.371l0.772-3.678h3.657l-0.771,3.678h-3.66L407.7,96.67h-2.371l-2.323,11.025h2.273h0.008h0.01l0.773-3.678
						h3.658l-0.773,3.678h-0.002l-0.775,3.673h3.633l-0.77,3.642h3.666l-0.71,3.355h3.604l0.706-3.32H414.709z M423.778,89.318
						h-3.675l0.774-3.672h3.674L423.778,89.318z M419.631,74.62h3.654l-0.773,3.676h-3.653L419.631,74.62z M409.994,85.646
						l0.771-3.679h3.658l-0.771,3.679H409.994z M401.466,115.011h2.22h0.01h0.008l0.771-3.642h-2.237L401.466,115.011z"/>
				</defs>
				<clipPath id="SVGID_30_">
					<use xlink:href="#SVGID_29_"  overflow="visible"/>
				</clipPath>
				<polygon opacity="0.6" clip-path="url(#SVGID_30_)" fill="#2B388F" enable-background="new    " points="392.556,334.307 
					282.889,-111.886 214.295,-103.004 				"/>
			</g>
		</g>
	</g>
	<g>
		<g>
			<g>
				<defs>
					<path id="SVGID_31_" d="M170.96,97.782c0.87,2.018,2.136,3.618,3.797,4.805c1.661,1.187,3.636,2.038,5.931,2.552
						c2.293,0.514,4.786,0.771,7.475,0.771c1.898,0,3.796-0.237,5.695-0.711c1.898-0.477,3.619-1.188,5.161-2.137
						s2.806-2.174,3.796-3.677c0.988-1.503,1.483-3.321,1.483-5.458c0-2.056-0.634-3.736-1.898-5.043
						c-1.266-1.304-2.906-2.431-4.922-3.38c-2.017-0.95-4.312-1.78-6.882-2.491c-2.57-0.713-5.16-1.463-7.771-2.253
						c-2.69-0.792-5.299-1.74-7.83-2.848c-2.532-1.108-4.805-2.531-6.822-4.271c-2.016-1.74-3.639-3.875-4.864-6.407
						c-1.227-2.531-1.839-5.616-1.839-9.254c0-4.746,0.988-8.779,2.966-12.1c1.975-3.323,4.546-6.029,7.711-8.127
						c3.163-2.095,6.742-3.637,10.736-4.626c3.994-0.989,8.047-1.483,12.161-1.483c4.35,0,8.441,0.494,12.279,1.483
						c3.834,0.99,7.196,2.592,10.084,4.804c2.886,2.216,5.179,5.043,6.88,8.483c1.7,3.441,2.551,7.613,2.551,12.516h-17.677
						c0.079-2.373-0.257-4.369-1.009-5.991c-0.751-1.62-1.819-2.944-3.203-3.974c-1.384-1.027-3.025-1.759-4.923-2.193
						c-1.899-0.434-3.915-0.654-6.05-0.654c-1.742,0-3.5,0.178-5.28,0.533c-1.779,0.357-3.381,0.949-4.805,1.781
						c-1.423,0.83-2.571,1.918-3.44,3.262c-0.871,1.345-1.305,3.006-1.305,4.983c0,2.057,0.771,3.777,2.313,5.16
						c1.542,1.384,3.4,2.531,5.576,3.439c2.173,0.912,4.408,1.623,6.703,2.136c2.293,0.515,4.152,0.932,5.576,1.246
						c3.322,0.872,6.366,1.879,9.135,3.025c2.768,1.149,5.161,2.631,7.178,4.449c2.017,1.822,3.578,4.033,4.686,6.645
						c1.106,2.611,1.661,5.813,1.661,9.609c0,5.063-1.049,9.373-3.145,12.932c-2.096,3.561-4.786,6.447-8.067,8.66
						c-3.283,2.215-6.981,3.816-11.093,4.807c-4.113,0.988-8.186,1.48-12.22,1.48c-11.863,0-20.702-2.412-26.515-7.234
						c-5.814-4.824-8.72-12.416-8.72-22.778h17.677C169.733,93.256,170.089,95.766,170.96,97.782z M290.249,51.278
						c-2.81-2.65-6.465-3.976-10.974-3.976c-4.746,0-8.879,1.088-12.397,3.264c-3.521,2.175-6.405,4.982-8.66,8.422
						c-2.254,3.44-3.936,7.276-5.042,11.508c-1.109,4.232-1.661,8.365-1.661,12.396c0,2.93,0.374,5.694,1.126,8.307
						c0.751,2.609,1.898,4.923,3.44,6.939c1.542,2.018,3.519,3.618,5.933,4.807c2.411,1.186,5.317,1.777,8.719,1.777
						c2.531,0,4.926-0.453,7.18-1.363c2.256-0.907,4.252-2.135,5.99-3.678s3.203-3.342,4.393-5.399
						c1.188-2.056,1.977-4.188,2.371-6.406h18.627c-1.898,5.933-4.133,10.955-6.703,15.067c-2.568,4.113-5.458,7.455-8.66,10.022
						c-3.201,2.572-6.764,4.433-10.679,5.577c-3.914,1.146-8.166,1.721-12.753,1.721c-12.021,0-21.295-3.203-27.82-9.609
						c-6.525-6.407-9.787-15.66-9.787-27.762c0-6.879,1.067-13.404,3.202-19.576c2.135-6.168,5.2-11.607,9.195-16.312
						c3.993-4.705,8.857-8.442,14.593-11.213c5.73-2.767,12.16-4.151,19.279-4.151c4.898,0,9.445,0.673,13.642,2.016
						c4.191,1.348,7.812,3.344,10.854,5.993c3.045,2.651,5.396,5.932,7.06,9.846c1.662,3.916,2.45,8.445,2.373,13.585h-18.626
						C294.461,57.863,293.057,53.928,290.249,51.278z M352.236,33.658l-7.355,35.474h0.238l38.438-35.474h24.679l-40.691,34.88
						l25.979,49.828h-20.996l-19.341-38.082l-12.932,11.271l-5.574,26.812h-18.626l17.559-84.708L352.236,33.658L352.236,33.658z
						 M475.735,110.537c-1.898,3.32-4.491,5.714-7.771,7.177c-3.283,1.462-6.821,2.196-10.617,2.196
						c-7.436,0-13.188-2.154-17.263-6.467c-4.074-4.311-6.109-10.184-6.109-17.617c0-5.061,0.672-10.003,2.019-14.829
						c1.346-4.824,3.399-9.136,6.17-12.932c2.769-3.797,6.247-6.86,10.438-9.193s9.138-3.501,14.83-3.501
						c3.561,0,6.979,0.792,10.265,2.373c3.276,1.585,5.594,4.075,6.938,7.475h0.236l6.763-31.559h16.847l-17.914,84.708h-16.253
						l1.661-7.593L475.735,110.537z M460.963,70.556c-2.332,1.661-4.252,3.756-5.752,6.287c-1.504,2.534-2.61,5.3-3.322,8.306
						c-0.711,3.007-1.066,5.854-1.066,8.541c0,1.82,0.257,3.562,0.771,5.223c0.517,1.658,1.268,3.104,2.256,4.328
						c0.989,1.228,2.233,2.216,3.737,2.968c1.5,0.752,3.241,1.127,5.219,1.127c3.163,0,5.896-0.851,8.188-2.551
						c2.294-1.7,4.212-3.854,5.754-6.468c1.543-2.609,2.688-5.437,3.438-8.481c0.75-3.043,1.129-5.873,1.129-8.481
						c0-4.034-0.989-7.253-2.967-9.668c-1.979-2.411-5.021-3.618-9.137-3.618C466.044,68.064,463.296,68.895,460.963,70.556z
						 M407.36,115.045h-0.011l-0.698,3.32h3.675l0.699-3.32h-3.657H407.36z M414.709,115.045l0.777-3.677h-3.639l0.776-3.673h3.655
						h0.021l0.776-3.678h-3.653l0.778-3.675h-3.638l0.778-3.674h3.7l-0.784,3.674h3.613l-0.776,3.675h3.56l9.995-46.99h-16.965
						l-7.583,35.964h2.371l0.772-3.678h3.657l-0.771,3.678h-3.66L407.7,96.67h-2.371l-2.323,11.025h2.273h0.008h0.01l0.773-3.678
						h3.658l-0.773,3.678h-0.002l-0.775,3.673h3.633l-0.77,3.642h3.666l-0.71,3.355h3.604l0.706-3.32H414.709z M423.778,89.318
						h-3.675l0.774-3.672h3.674L423.778,89.318z M419.631,74.62h3.654l-0.773,3.676h-3.653L419.631,74.62z M409.994,85.646
						l0.771-3.679h3.658l-0.771,3.679H409.994z M401.466,115.011h2.22h0.01h0.008l0.771-3.642h-2.237L401.466,115.011z"/>
				</defs>
				<clipPath id="SVGID_32_">
					<use xlink:href="#SVGID_31_"  overflow="visible"/>
				</clipPath>
				<polygon opacity="0.6" clip-path="url(#SVGID_32_)" fill="#26A9E0" enable-background="new    " points="323.746,-119.276 
					199.306,326.473 291.369,351.977 				"/>
			</g>
		</g>
	</g>
	<g>
		<g>
			<g>
				<defs>
					<path id="SVGID_33_" d="M170.96,97.782c0.87,2.018,2.136,3.618,3.797,4.805c1.661,1.187,3.636,2.038,5.931,2.552
						c2.293,0.514,4.786,0.771,7.475,0.771c1.898,0,3.796-0.237,5.695-0.711c1.898-0.477,3.619-1.188,5.161-2.137
						s2.806-2.174,3.796-3.677c0.988-1.503,1.483-3.321,1.483-5.458c0-2.056-0.634-3.736-1.898-5.043
						c-1.266-1.304-2.906-2.431-4.922-3.38c-2.017-0.95-4.312-1.78-6.882-2.491c-2.57-0.713-5.16-1.463-7.771-2.253
						c-2.69-0.792-5.299-1.74-7.83-2.848c-2.532-1.108-4.805-2.531-6.822-4.271c-2.016-1.74-3.639-3.875-4.864-6.407
						c-1.227-2.531-1.839-5.616-1.839-9.254c0-4.746,0.988-8.779,2.966-12.1c1.975-3.323,4.546-6.029,7.711-8.127
						c3.163-2.095,6.742-3.637,10.736-4.626c3.994-0.989,8.047-1.483,12.161-1.483c4.35,0,8.441,0.494,12.279,1.483
						c3.834,0.99,7.196,2.592,10.084,4.804c2.886,2.216,5.179,5.043,6.88,8.483c1.7,3.441,2.551,7.613,2.551,12.516h-17.677
						c0.079-2.373-0.257-4.369-1.009-5.991c-0.751-1.62-1.819-2.944-3.203-3.974c-1.384-1.027-3.025-1.759-4.923-2.193
						c-1.899-0.434-3.915-0.654-6.05-0.654c-1.742,0-3.5,0.178-5.28,0.533c-1.779,0.357-3.381,0.949-4.805,1.781
						c-1.423,0.83-2.571,1.918-3.44,3.262c-0.871,1.345-1.305,3.006-1.305,4.983c0,2.057,0.771,3.777,2.313,5.16
						c1.542,1.384,3.4,2.531,5.576,3.439c2.173,0.912,4.408,1.623,6.703,2.136c2.293,0.515,4.152,0.932,5.576,1.246
						c3.322,0.872,6.366,1.879,9.135,3.025c2.768,1.149,5.161,2.631,7.178,4.449c2.017,1.822,3.578,4.033,4.686,6.645
						c1.106,2.611,1.661,5.813,1.661,9.609c0,5.063-1.049,9.373-3.145,12.932c-2.096,3.561-4.786,6.447-8.067,8.66
						c-3.283,2.215-6.981,3.816-11.093,4.807c-4.113,0.988-8.186,1.48-12.22,1.48c-11.863,0-20.702-2.412-26.515-7.234
						c-5.814-4.824-8.72-12.416-8.72-22.778h17.677C169.733,93.256,170.089,95.766,170.96,97.782z M290.249,51.278
						c-2.81-2.65-6.465-3.976-10.974-3.976c-4.746,0-8.879,1.088-12.397,3.264c-3.521,2.175-6.405,4.982-8.66,8.422
						c-2.254,3.44-3.936,7.276-5.042,11.508c-1.109,4.232-1.661,8.365-1.661,12.396c0,2.93,0.374,5.694,1.126,8.307
						c0.751,2.609,1.898,4.923,3.44,6.939c1.542,2.018,3.519,3.618,5.933,4.807c2.411,1.186,5.317,1.777,8.719,1.777
						c2.531,0,4.926-0.453,7.18-1.363c2.256-0.907,4.252-2.135,5.99-3.678s3.203-3.342,4.393-5.399
						c1.188-2.056,1.977-4.188,2.371-6.406h18.627c-1.898,5.933-4.133,10.955-6.703,15.067c-2.568,4.113-5.458,7.455-8.66,10.022
						c-3.201,2.572-6.764,4.433-10.679,5.577c-3.914,1.146-8.166,1.721-12.753,1.721c-12.021,0-21.295-3.203-27.82-9.609
						c-6.525-6.407-9.787-15.66-9.787-27.762c0-6.879,1.067-13.404,3.202-19.576c2.135-6.168,5.2-11.607,9.195-16.312
						c3.993-4.705,8.857-8.442,14.593-11.213c5.73-2.767,12.16-4.151,19.279-4.151c4.898,0,9.445,0.673,13.642,2.016
						c4.191,1.348,7.812,3.344,10.854,5.993c3.045,2.651,5.396,5.932,7.06,9.846c1.662,3.916,2.45,8.445,2.373,13.585h-18.626
						C294.461,57.863,293.057,53.928,290.249,51.278z M352.236,33.658l-7.355,35.474h0.238l38.438-35.474h24.679l-40.691,34.88
						l25.979,49.828h-20.996l-19.341-38.082l-12.932,11.271l-5.574,26.812h-18.626l17.559-84.708L352.236,33.658L352.236,33.658z
						 M475.735,110.537c-1.898,3.32-4.491,5.714-7.771,7.177c-3.283,1.462-6.821,2.196-10.617,2.196
						c-7.436,0-13.188-2.154-17.263-6.467c-4.074-4.311-6.109-10.184-6.109-17.617c0-5.061,0.672-10.003,2.019-14.829
						c1.346-4.824,3.399-9.136,6.17-12.932c2.769-3.797,6.247-6.86,10.438-9.193s9.138-3.501,14.83-3.501
						c3.561,0,6.979,0.792,10.265,2.373c3.276,1.585,5.594,4.075,6.938,7.475h0.236l6.763-31.559h16.847l-17.914,84.708h-16.253
						l1.661-7.593L475.735,110.537z M460.963,70.556c-2.332,1.661-4.252,3.756-5.752,6.287c-1.504,2.534-2.61,5.3-3.322,8.306
						c-0.711,3.007-1.066,5.854-1.066,8.541c0,1.82,0.257,3.562,0.771,5.223c0.517,1.658,1.268,3.104,2.256,4.328
						c0.989,1.228,2.233,2.216,3.737,2.968c1.5,0.752,3.241,1.127,5.219,1.127c3.163,0,5.896-0.851,8.188-2.551
						c2.294-1.7,4.212-3.854,5.754-6.468c1.543-2.609,2.688-5.437,3.438-8.481c0.75-3.043,1.129-5.873,1.129-8.481
						c0-4.034-0.989-7.253-2.967-9.668c-1.979-2.411-5.021-3.618-9.137-3.618C466.044,68.064,463.296,68.895,460.963,70.556z
						 M407.36,115.045h-0.011l-0.698,3.32h3.675l0.699-3.32h-3.657H407.36z M414.709,115.045l0.777-3.677h-3.639l0.776-3.673h3.655
						h0.021l0.776-3.678h-3.653l0.778-3.675h-3.638l0.778-3.674h3.7l-0.784,3.674h3.613l-0.776,3.675h3.56l9.995-46.99h-16.965
						l-7.583,35.964h2.371l0.772-3.678h3.657l-0.771,3.678h-3.66L407.7,96.67h-2.371l-2.323,11.025h2.273h0.008h0.01l0.773-3.678
						h3.658l-0.773,3.678h-0.002l-0.775,3.673h3.633l-0.77,3.642h3.666l-0.71,3.355h3.604l0.706-3.32H414.709z M423.778,89.318
						h-3.675l0.774-3.672h3.674L423.778,89.318z M419.631,74.62h3.654l-0.773,3.676h-3.653L419.631,74.62z M409.994,85.646
						l0.771-3.679h3.658l-0.771,3.679H409.994z M401.466,115.011h2.22h0.01h0.008l0.771-3.642h-2.237L401.466,115.011z"/>
				</defs>
				<clipPath id="SVGID_34_">
					<use xlink:href="#SVGID_33_"  overflow="visible"/>
				</clipPath>
				<path clip-path="url(#SVGID_34_)" fill="#FFFFFF" d="M464.256-83.701c73.714-36.05,63.826-133.396,63.826-133.396
					c-22.809,0.861-50.412-10.336-63.826-19.383c-13.418,9.047-41.019,20.244-63.834,19.383
					C400.422-217.096,390.535-119.746,464.256-83.701z"/>
			</g>
		</g>
	</g>
</g>
<path fill="#1B75BB" d="M421.752,50.656c9.356-4.053,11.133-14.999,11.133-14.999c-2.592,0.097-5.359-1.16-6.601-2.179
	c-1.778,1.019-5.213,2.276-7.751,2.179C418.533,35.658,414.533,46.603,421.752,50.656z"/>
<g>
	<path fill="#2B388F" d="M153.022,133.827c-0.268-0.677-0.658-1.222-1.173-1.64c-0.513-0.42-1.146-0.713-1.896-0.885
		c-0.75-0.173-1.618-0.258-2.604-0.258c-0.707,0-1.409,0.084-2.104,0.258c-0.696,0.172-1.323,0.442-1.88,0.818
		c-0.557,0.374-1.008,0.854-1.351,1.43c-0.343,0.581-0.514,1.276-0.514,2.092c0,0.601,0.112,1.108,0.337,1.524
		c0.226,0.418,0.514,0.771,0.868,1.062s0.766,0.526,1.237,0.707c0.471,0.184,0.944,0.35,1.415,0.498l2.442,0.739
		c0.793,0.235,1.559,0.491,2.297,0.771c0.74,0.281,1.399,0.633,1.979,1.062c0.578,0.429,1.038,0.963,1.38,1.608
		c0.343,0.64,0.515,1.445,0.515,2.408c0,0.58-0.112,1.27-0.339,2.072c-0.224,0.807-0.659,1.575-1.301,2.316
		c-0.642,0.736-1.542,1.361-2.699,1.878c-1.157,0.514-2.667,0.771-4.531,0.771c-1.285,0-2.469-0.158-3.552-0.466
		c-1.082-0.312-2.013-0.792-2.795-1.448c-0.782-0.651-1.376-1.482-1.784-2.487c-0.407-1.009-0.579-2.208-0.513-3.601h2.184
		c-0.063,1.112,0.05,2.062,0.338,2.844c0.288,0.783,0.728,1.42,1.316,1.91c0.589,0.496,1.308,0.854,2.154,1.078
		c0.847,0.223,1.784,0.336,2.812,0.336c0.749,0,1.511-0.096,2.282-0.287c0.771-0.192,1.474-0.485,2.105-0.885
		c0.632-0.396,1.146-0.904,1.542-1.527c0.396-0.617,0.596-1.359,0.596-2.217c0-0.812-0.177-1.474-0.531-1.978
		c-0.354-0.503-0.809-0.914-1.366-1.235c-0.556-0.322-1.167-0.58-1.832-0.771c-0.663-0.191-1.317-0.386-1.96-0.578l-2.25-0.677
		c-1.35-0.385-2.442-1.002-3.278-1.848c-0.837-0.845-1.252-2.009-1.252-3.486c0-1.157,0.229-2.146,0.691-2.973
		c0.459-0.824,1.069-1.502,1.831-2.024c0.76-0.524,1.628-0.915,2.603-1.173s1.978-0.387,3.006-0.387
		c1.156,0,2.249,0.123,3.277,0.372c1.029,0.245,1.912,0.652,2.65,1.22c0.739,0.568,1.312,1.308,1.72,2.219
		c0.407,0.91,0.579,2.027,0.515,3.357h-2.186C153.424,135.341,153.289,134.499,153.022,133.827z"/>
	<path fill="#2B388F" d="M159.16,138.535c0.418-0.688,0.937-1.248,1.559-1.688c0.622-0.44,1.329-0.767,2.122-0.982
		c0.793-0.213,1.627-0.319,2.506-0.319c0.557,0,1.174,0.054,1.847,0.159c0.677,0.107,1.301,0.302,1.882,0.58
		c0.577,0.277,1.059,0.654,1.444,1.124c0.387,0.472,0.58,1.084,0.58,1.833c0,0.406-0.039,0.855-0.112,1.351
		c-0.076,0.493-0.167,0.99-0.274,1.494c-0.107,0.502-0.221,0.996-0.338,1.479c-0.117,0.479-0.22,0.901-0.305,1.268
		c-0.193,0.922-0.359,1.688-0.498,2.299c-0.14,0.609-0.251,1.119-0.337,1.527c-0.085,0.408-0.15,0.738-0.192,0.997
		c-0.043,0.253-0.064,0.511-0.064,0.77c0,0.3,0.117,0.487,0.353,0.562c0.237,0.076,0.472,0.113,0.707,0.113
		c0.151,0,0.285-0.006,0.403-0.017c0.118-0.011,0.25-0.024,0.401-0.049l-0.29,1.575c-0.535,0.105-1.092,0.158-1.671,0.158
		c-1.136,0-1.724-0.588-1.767-1.767c0-0.147,0.005-0.299,0.016-0.446c0.012-0.154,0.027-0.303,0.048-0.451l-0.064-0.065
		c-0.58,0.964-1.394,1.708-2.444,2.233c-1.049,0.521-2.152,0.789-3.31,0.789c-0.77,0-1.479-0.086-2.12-0.258
		c-0.643-0.174-1.195-0.441-1.655-0.804c-0.462-0.365-0.825-0.838-1.094-1.416c-0.267-0.577-0.4-1.272-0.4-2.089
		c0-0.879,0.155-1.615,0.465-2.219c0.31-0.6,0.735-1.092,1.27-1.479c0.536-0.385,1.146-0.689,1.832-0.914
		c0.685-0.227,1.402-0.404,2.154-0.533c1.092-0.17,2.082-0.25,2.972-0.236c0.889,0.009,1.655-0.07,2.298-0.244
		c0.663-0.169,1.161-0.48,1.494-0.932c0.333-0.449,0.5-1.221,0.5-2.313c0-0.491-0.112-0.896-0.338-1.206
		c-0.226-0.309-0.504-0.55-0.835-0.722c-0.332-0.173-0.708-0.29-1.125-0.356c-0.418-0.062-0.819-0.094-1.203-0.094
		c-0.644,0-1.254,0.062-1.833,0.191c-0.58,0.129-1.104,0.336-1.575,0.627c-0.472,0.287-0.862,0.678-1.173,1.156
		c-0.31,0.483-0.519,1.067-0.626,1.752h-2.024C158.47,140.035,158.744,139.221,159.16,138.535z M168.305,143.676
		c-0.173,0.193-0.415,0.35-0.726,0.467c-0.31,0.119-0.637,0.209-0.98,0.272c-0.343,0.063-0.69,0.106-1.044,0.13
		c-0.353,0.02-0.659,0.041-0.916,0.061c-0.621,0.045-1.312,0.104-2.071,0.18c-0.763,0.074-1.475,0.236-2.139,0.482
		c-0.664,0.244-1.221,0.609-1.671,1.09c-0.449,0.484-0.674,1.164-0.674,2.041c0,0.537,0.1,0.994,0.305,1.369
		c0.203,0.373,0.477,0.687,0.819,0.931c0.343,0.247,0.739,0.423,1.188,0.528c0.45,0.11,0.911,0.164,1.383,0.164
		c1.629,0,2.946-0.439,3.953-1.317c1.007-0.88,1.671-2.06,1.993-3.537l0.644-2.795L168.305,143.676z"/>
	<path fill="#2B388F" d="M178.909,137.73l-3.279,14.879h-2.023l3.278-14.879h-2.892l0.385-1.703h2.86l0.514-2.411
		c0.258-1.222,0.718-2.187,1.383-2.894c0.664-0.707,1.681-1.06,3.052-1.06c0.366,0,0.719,0.008,1.061,0.03
		c0.343,0.023,0.686,0.088,1.029,0.195l-0.353,1.668c-0.215-0.045-0.424-0.086-0.627-0.129c-0.204-0.041-0.413-0.062-0.626-0.062
		c-0.943,0-1.62,0.188-2.025,0.562c-0.408,0.372-0.708,0.969-0.9,1.781l-0.483,2.316h3.28l-0.386,1.703h-3.248V137.73z"/>
	<path fill="#2B388F" d="M183.827,146.15c0,0.75,0.094,1.447,0.29,2.09c0.192,0.641,0.486,1.193,0.884,1.654
		c0.396,0.461,0.899,0.821,1.509,1.092c0.612,0.269,1.323,0.402,2.138,0.402c1.349,0,2.495-0.384,3.438-1.145
		c0.941-0.76,1.606-1.751,1.991-2.973h2.026c-0.557,1.888-1.458,3.321-2.701,4.307c-1.242,0.984-2.859,1.479-4.851,1.479
		c-2.208,0-3.884-0.621-5.03-1.865c-1.148-1.239-1.721-2.955-1.721-5.141c0-1.328,0.199-2.621,0.595-3.874
		c0.397-1.251,0.982-2.37,1.752-3.356c0.772-0.984,1.713-1.777,2.828-2.379c1.114-0.601,2.378-0.898,3.793-0.898
		c1.005,0,1.896,0.155,2.666,0.467c0.771,0.311,1.431,0.746,1.978,1.316c0.547,0.566,0.958,1.249,1.236,2.04
		c0.28,0.792,0.418,1.672,0.418,2.636c0,0.473-0.012,0.941-0.033,1.415c-0.021,0.471-0.063,0.954-0.127,1.444H183.92
		C183.858,145.25,183.827,145.678,183.827,146.15z M195.026,142.504c0.01-0.203,0.016-0.412,0.016-0.628
		c0-1.412-0.402-2.539-1.206-3.374c-0.804-0.836-1.912-1.254-3.325-1.254c-0.836,0-1.604,0.166-2.299,0.499
		c-0.695,0.332-1.317,0.771-1.863,1.315c-0.545,0.549-1.003,1.174-1.367,1.881c-0.364,0.707-0.632,1.445-0.804,2.217h10.832
		C195.011,142.926,195.016,142.708,195.026,142.504z"/>
	<path fill="#2B388F" d="M225.106,132.523c-1.146-0.984-2.684-1.479-4.611-1.479c-1.736,0-3.241,0.355-4.515,1.076
		c-1.275,0.718-2.342,1.662-3.199,2.827c-0.856,1.169-1.493,2.497-1.912,3.985c-0.417,1.488-0.627,3.018-0.627,4.578
		c0,1.18,0.172,2.24,0.515,3.184c0.343,0.941,0.842,1.753,1.495,2.426c0.654,0.675,1.451,1.193,2.394,1.561
		c0.943,0.362,2.003,0.545,3.182,0.545c0.901,0,1.763-0.149,2.588-0.449c0.823-0.301,1.575-0.729,2.25-1.286
		c0.674-0.558,1.263-1.237,1.768-2.04c0.501-0.805,0.894-1.698,1.172-2.684h2.184c-0.256,1.176-0.664,2.274-1.221,3.293
		c-0.556,1.019-1.264,1.896-2.119,2.635c-0.859,0.74-1.865,1.315-3.023,1.734c-1.157,0.42-2.473,0.629-3.953,0.629
		c-1.5,0-2.833-0.236-4-0.707c-1.168-0.473-2.154-1.132-2.958-1.978c-0.803-0.847-1.415-1.868-1.832-3.07
		c-0.417-1.198-0.627-2.526-0.627-3.983c0-1.844,0.28-3.61,0.836-5.303c0.557-1.692,1.372-3.197,2.442-4.515
		c1.072-1.317,2.378-2.369,3.92-3.149c1.543-0.783,3.3-1.174,5.271-1.174c1.2,0,2.319,0.168,3.359,0.497
		c1.039,0.331,1.938,0.82,2.698,1.464c0.761,0.644,1.362,1.444,1.801,2.407c0.438,0.963,0.669,2.091,0.69,3.375h-2.186
		C226.847,134.977,226.253,133.508,225.106,132.523z"/>
	<path fill="#2B388F" d="M229.943,157.016c0.622,0,1.147-0.197,1.576-0.58c0.428-0.386,0.771-0.795,1.028-1.226l1.51-2.601
		l-3.052-16.582h2.12l2.379,14.076h0.063l7.649-14.076h2.187l-11.796,20.47c-0.857,1.479-2.196,2.216-4.019,2.216
		c-0.276,0-0.562-0.02-0.851-0.062c-0.29-0.041-0.583-0.075-0.882-0.094l0.385-1.644
		C228.818,156.98,229.387,157.016,229.943,157.016z"/>
	<path fill="#2B388F" d="M251.026,129.665l-1.961,9.288h0.064c0.58-1.029,1.354-1.854,2.329-2.477
		c0.975-0.619,2.106-0.932,3.391-0.932c1.07,0,1.999,0.174,2.782,0.529c0.781,0.354,1.436,0.835,1.959,1.443
		c0.525,0.612,0.917,1.34,1.174,2.188c0.258,0.843,0.387,1.763,0.387,2.747c0,1.263-0.19,2.527-0.578,3.792
		c-0.387,1.265-0.946,2.397-1.688,3.407c-0.737,1.007-1.655,1.824-2.747,2.459c-1.093,0.631-2.347,0.947-3.762,0.947
		c-1.413,0-2.624-0.363-3.63-1.094c-1.008-0.729-1.65-1.777-1.929-3.148h-0.064l-0.802,3.793h-1.801l4.854-22.946h2.023V129.665z
		 M255.155,150.555c0.869-0.559,1.597-1.271,2.186-2.139c0.589-0.867,1.032-1.838,1.334-2.91c0.3-1.07,0.449-2.107,0.449-3.117
		c0-1.541-0.375-2.783-1.125-3.729c-0.751-0.941-1.96-1.413-3.63-1.413c-1.116,0-2.094,0.302-2.942,0.901
		c-0.846,0.599-1.553,1.35-2.122,2.248c-0.567,0.899-0.995,1.879-1.284,2.94c-0.29,1.062-0.434,2.062-0.434,3.004
		c0,0.707,0.09,1.367,0.272,1.978c0.182,0.608,0.461,1.142,0.836,1.589c0.374,0.45,0.847,0.81,1.414,1.079
		c0.567,0.269,1.237,0.4,2.008,0.4C253.276,151.391,254.289,151.111,255.155,150.555z"/>
	<path fill="#2B388F" d="M265.391,146.15c0,0.75,0.098,1.447,0.289,2.09c0.192,0.641,0.487,1.193,0.887,1.654
		c0.396,0.461,0.896,0.821,1.511,1.092c0.608,0.269,1.321,0.402,2.138,0.402c1.352,0,2.494-0.384,3.438-1.145
		c0.941-0.76,1.604-1.751,1.992-2.973h2.023c-0.559,1.888-1.456,3.321-2.699,4.307c-1.242,0.984-2.857,1.479-4.852,1.479
		c-2.21,0-3.887-0.621-5.03-1.865c-1.146-1.239-1.721-2.955-1.721-5.141c0-1.328,0.196-2.621,0.595-3.874
		c0.396-1.251,0.98-2.37,1.752-3.356c0.771-0.984,1.715-1.777,2.829-2.379c1.112-0.601,2.378-0.898,3.791-0.898
		c1.008,0,1.896,0.155,2.668,0.467c0.771,0.311,1.431,0.746,1.979,1.316c0.545,0.566,0.957,1.249,1.232,2.04
		c0.279,0.792,0.418,1.672,0.418,2.636c0,0.473-0.009,0.941-0.029,1.415c-0.021,0.471-0.062,0.954-0.129,1.444H265.49
		C265.423,145.25,265.391,145.678,265.391,146.15z M276.591,142.504c0.011-0.203,0.017-0.412,0.017-0.628
		c0-1.412-0.398-2.539-1.205-3.374c-0.803-0.836-1.909-1.254-3.324-1.254c-0.836,0-1.604,0.166-2.301,0.499
		c-0.693,0.332-1.313,0.771-1.86,1.315c-0.547,0.549-1.002,1.174-1.366,1.881c-0.361,0.707-0.633,1.445-0.804,2.217h10.831
		C276.575,142.926,276.58,142.708,276.591,142.504z"/>
	<path fill="#2B388F" d="M284.643,136.027l-0.836,3.826h0.063c0.644-1.201,1.437-2.177,2.378-2.929
		c0.943-0.748,2.152-1.12,3.632-1.12h0.547c0.106,0,0.201,0,0.29,0c0.085,0,0.169,0.008,0.258,0.028l-0.451,2.022
		c-0.19,0-0.385-0.006-0.578-0.015c-0.19-0.01-0.387-0.018-0.575-0.018c-0.901,0.021-1.699,0.202-2.396,0.547
		c-0.697,0.345-1.304,0.797-1.814,1.366c-0.516,0.564-0.938,1.217-1.271,1.943c-0.33,0.729-0.58,1.478-0.752,2.25l-1.865,8.678
		h-1.992l3.537-16.584h1.83v0.002h-0.004V136.027z"/>
	<path fill="#2B388F" d="M305.883,129.665l-2.634,12.244l0.063,0.065l14.812-12.311h3.054l-11.763,9.576l8.196,13.369h-2.508
		l-7.297-12.02l-5.107,4.079l-1.704,7.94h-2.187l4.883-22.946h2.191V129.665z"/>
	<path fill="#2B388F" d="M324.716,136.027l-3.566,16.584h-1.99l3.534-16.584H324.716L324.716,136.027z M326.099,129.665
		l-0.708,3.247h-2.021l0.706-3.247H326.099z"/>
	<path fill="#2B388F" d="M337.537,152.611l0.742-2.989h-0.066c-0.705,1.091-1.525,1.94-2.459,2.539
		c-0.931,0.603-2.125,0.899-3.581,0.899c-2.124,0-3.701-0.615-4.741-1.848s-1.557-2.865-1.557-4.902
		c0-1.263,0.208-2.539,0.624-3.824c0.42-1.284,1.024-2.442,1.816-3.471c0.792-1.025,1.743-1.863,2.857-2.508
		c1.115-0.644,2.369-0.962,3.761-0.962c1.31,0,2.442,0.271,3.406,0.818c0.965,0.546,1.627,1.475,1.994,2.778h0.062l1.99-9.479h2.026
		l-4.917,22.945h-1.958V152.611z M335.449,150.505c0.896-0.59,1.656-1.336,2.27-2.249c0.606-0.91,1.073-1.918,1.396-3.021
		c0.32-1.104,0.479-2.17,0.479-3.196c0-1.479-0.396-2.647-1.203-3.502c-0.806-0.854-1.943-1.287-3.425-1.287
		c-1.157,0-2.182,0.291-3.064,0.867c-0.896,0.577-1.629,1.317-2.221,2.219c-0.593,0.897-1.03,1.892-1.336,2.974
		c-0.301,1.084-0.445,2.127-0.445,3.133c0,1.416,0.361,2.594,1.093,3.537c0.728,0.94,1.852,1.414,3.371,1.414
		C333.523,151.391,334.552,151.096,335.449,150.505z"/>
	<path fill="#2B388F" d="M372.569,129.665l-0.39,1.862h-12.5l-1.768,8.291H369l-0.354,1.865h-11.151l-2.347,10.926h-2.188
		l4.917-22.945L372.569,129.665L372.569,129.665z"/>
	<path fill="#2B388F" d="M375.107,136.027l-0.84,3.826h0.066c0.646-1.201,1.434-2.177,2.378-2.929c0.94-0.748,2.153-1.12,3.632-1.12
		h0.547c0.104,0,0.201,0,0.285,0c0.086,0,0.174,0.008,0.26,0.028l-0.446,2.022c-0.194,0-0.389-0.006-0.581-0.015
		c-0.189-0.01-0.385-0.018-0.577-0.018c-0.9,0.021-1.698,0.202-2.396,0.547c-0.693,0.345-1.303,0.797-1.813,1.366
		c-0.514,0.564-0.938,1.217-1.271,1.943c-0.336,0.729-0.585,1.478-0.759,2.25l-1.857,8.678h-1.992l3.534-16.584h1.832V136.027
		L375.107,136.027z"/>
	<path fill="#2B388F" d="M382.995,138.535c0.419-0.688,0.938-1.248,1.559-1.688c0.622-0.44,1.33-0.767,2.122-0.982
		c0.794-0.213,1.627-0.319,2.508-0.319c0.559,0,1.176,0.054,1.85,0.159c0.676,0.107,1.302,0.302,1.882,0.58
		c0.576,0.277,1.058,0.654,1.444,1.124c0.387,0.472,0.576,1.084,0.576,1.833c0,0.406-0.035,0.855-0.106,1.351
		c-0.078,0.493-0.169,0.99-0.276,1.494c-0.104,0.502-0.222,0.996-0.338,1.479c-0.117,0.479-0.219,0.901-0.304,1.268
		c-0.194,0.922-0.36,1.688-0.498,2.299c-0.144,0.609-0.251,1.119-0.339,1.527c-0.085,0.408-0.149,0.738-0.192,0.997
		c-0.042,0.253-0.062,0.511-0.062,0.77c0,0.3,0.115,0.487,0.353,0.562c0.236,0.076,0.474,0.113,0.705,0.113
		c0.154,0,0.287-0.006,0.404-0.017c0.12-0.011,0.252-0.024,0.399-0.049l-0.291,1.575c-0.53,0.105-1.089,0.158-1.671,0.158
		c-1.135,0-1.725-0.588-1.767-1.767c0-0.147,0.005-0.299,0.016-0.446c0.016-0.154,0.026-0.303,0.049-0.451l-0.062-0.065
		c-0.578,0.964-1.396,1.708-2.443,2.233c-1.052,0.521-2.149,0.789-3.31,0.789c-0.771,0-1.479-0.086-2.12-0.258
		c-0.644-0.174-1.196-0.441-1.654-0.804c-0.463-0.365-0.825-0.838-1.094-1.416c-0.27-0.577-0.401-1.272-0.401-2.089
		c0-0.879,0.153-1.615,0.468-2.219c0.31-0.6,0.732-1.092,1.27-1.479c0.535-0.385,1.146-0.689,1.832-0.914
		c0.688-0.227,1.402-0.404,2.153-0.533c1.094-0.17,2.083-0.25,2.973-0.236c0.889,0.009,1.656-0.07,2.298-0.244
		c0.664-0.169,1.161-0.48,1.495-0.932c0.33-0.448,0.499-1.221,0.499-2.313c0-0.491-0.112-0.896-0.338-1.206
		c-0.229-0.309-0.504-0.55-0.837-0.722c-0.331-0.173-0.707-0.29-1.123-0.356c-0.42-0.062-0.822-0.094-1.204-0.094
		c-0.646,0-1.256,0.062-1.835,0.191c-0.578,0.129-1.104,0.336-1.576,0.627c-0.469,0.287-0.857,0.678-1.171,1.156
		c-0.312,0.483-0.518,1.067-0.628,1.752h-2.021C382.306,140.035,382.577,139.221,382.995,138.535z M392.139,143.676
		c-0.172,0.193-0.411,0.35-0.724,0.467c-0.312,0.119-0.639,0.209-0.979,0.272c-0.344,0.063-0.688,0.106-1.047,0.13
		c-0.351,0.02-0.654,0.041-0.914,0.061c-0.622,0.045-1.312,0.104-2.069,0.18c-0.765,0.074-1.479,0.236-2.142,0.482
		c-0.663,0.244-1.219,0.609-1.67,1.09c-0.446,0.484-0.676,1.164-0.676,2.041c0,0.537,0.1,0.994,0.306,1.369
		c0.205,0.373,0.479,0.687,0.821,0.931c0.343,0.247,0.738,0.423,1.188,0.528c0.446,0.11,0.907,0.164,1.383,0.164
		c1.63,0,2.949-0.439,3.951-1.317c1.009-0.88,1.673-2.06,1.991-3.537l0.646-2.795L392.139,143.676z"/>
	<path fill="#2B388F" d="M401.941,136.027l-0.646,2.892l0.066,0.063c0.601-0.963,1.412-1.779,2.438-2.441
		c1.031-0.665,2.166-0.996,3.409-0.996c1.155,0,2.09,0.294,2.795,0.883c0.707,0.59,1.114,1.473,1.223,2.651h0.063
		c0.642-1.028,1.461-1.877,2.459-2.539c0.995-0.665,2.115-0.996,3.357-0.996c1.604,0,2.772,0.406,3.503,1.22
		c0.729,0.814,1.094,1.865,1.094,3.15c0,0.298-0.021,0.604-0.065,0.916c-0.044,0.311-0.095,0.638-0.161,0.979l-2.312,10.801h-2.024
		l2.349-10.862c0.128-0.58,0.189-1.138,0.189-1.672c0-0.812-0.252-1.489-0.755-2.023c-0.503-0.536-1.303-0.805-2.396-0.805
		c-0.878,0-1.646,0.206-2.297,0.608c-0.652,0.41-1.224,0.959-1.701,1.656c-0.484,0.699-0.888,1.512-1.206,2.443
		c-0.319,0.931-0.603,1.934-0.835,3.006l-1.644,7.648h-2.021l2.312-10.801c0.129-0.558,0.19-1.092,0.19-1.605
		c0-0.816-0.217-1.51-0.658-2.089c-0.438-0.576-1.148-0.867-2.137-0.867c-0.729,0-1.425,0.183-2.088,0.545
		c-0.666,0.365-1.267,0.858-1.8,1.479c-0.537,0.621-1.003,1.355-1.399,2.201s-0.702,1.752-0.915,2.717l-1.8,8.42h-1.994
		l3.537-16.584h1.863v0.002H401.941z"/>
	<path fill="#2B388F" d="M426.108,146.15c0,0.75,0.095,1.447,0.29,2.09c0.188,0.641,0.484,1.193,0.883,1.654
		c0.396,0.461,0.897,0.821,1.512,1.092c0.608,0.269,1.322,0.402,2.138,0.402c1.351,0,2.494-0.384,3.438-1.145
		c0.939-0.76,1.604-1.751,1.991-2.973h2.022c-0.556,1.888-1.456,3.321-2.7,4.307c-1.24,0.984-2.857,1.479-4.852,1.479
		c-2.207,0-3.885-0.621-5.029-1.865c-1.146-1.239-1.719-2.955-1.719-5.141c0-1.328,0.196-2.621,0.593-3.874
		c0.397-1.251,0.979-2.37,1.751-3.356c0.773-0.984,1.715-1.777,2.831-2.379c1.112-0.601,2.376-0.898,3.792-0.898
		c1.006,0,1.896,0.155,2.666,0.467c0.772,0.311,1.429,0.746,1.979,1.316c0.545,0.566,0.958,1.249,1.232,2.04
		c0.278,0.792,0.418,1.672,0.418,2.636c0,0.473-0.012,0.941-0.028,1.415c-0.022,0.471-0.063,0.954-0.126,1.444h-12.988
		C426.142,145.25,426.108,145.678,426.108,146.15z M437.309,142.504c0.014-0.203,0.021-0.412,0.021-0.628
		c0-1.412-0.404-2.539-1.206-3.374c-0.806-0.836-1.914-1.254-3.327-1.254c-0.836,0-1.601,0.166-2.297,0.499
		c-0.696,0.332-1.319,0.771-1.865,1.315c-0.546,0.549-1.003,1.174-1.364,1.881s-0.634,1.445-0.806,2.217h10.831
		C437.292,142.926,437.298,142.708,437.309,142.504z"/>
	<path fill="#2B388F" d="M443.399,136.027l1.313,14.139h0.063l6.848-14.139H454l1.127,14.012h0.066l7.038-14.012h2.146
		l-8.707,16.584h-2.186l-1.188-13.918h-0.062l-6.813,13.918h-2.217l-1.93-16.584H443.399L443.399,136.027z"/>
	<path fill="#2B388F" d="M476.484,135.979c0.802,0.289,1.491,0.713,2.07,1.271c0.578,0.56,1.025,1.237,1.353,2.04
		c0.317,0.805,0.479,1.721,0.479,2.749c0,1.394-0.188,2.753-0.579,4.08c-0.385,1.33-0.96,2.507-1.719,3.539
		c-0.761,1.026-1.713,1.852-2.857,2.472c-1.146,0.622-2.491,0.934-4.034,0.934c-2.145,0-3.781-0.621-4.914-1.865
		c-1.142-1.24-1.705-2.912-1.705-5.012c0-1.352,0.201-2.668,0.611-3.953c0.403-1.287,1.005-2.42,1.8-3.406
		c0.79-0.985,1.761-1.778,2.903-2.379c1.146-0.602,2.459-0.899,3.938-0.899C474.797,135.546,475.681,135.689,476.484,135.979z
		 M474.525,150.537c0.844-0.569,1.551-1.29,2.121-2.167c0.562-0.881,0.99-1.847,1.282-2.896c0.288-1.051,0.436-2.058,0.436-3.021
		c0-1.542-0.408-2.797-1.223-3.762c-0.812-0.963-2.034-1.445-3.661-1.445c-1.116,0-2.104,0.271-2.959,0.818
		c-0.856,0.547-1.573,1.246-2.152,2.092c-0.579,0.843-1.02,1.785-1.317,2.826c-0.3,1.039-0.449,2.041-0.449,3.006
		c0,1.605,0.404,2.908,1.223,3.904c0.812,0.996,2.065,1.494,3.763,1.494C472.699,151.391,473.679,151.105,474.525,150.537z"/>
	<path fill="#2B388F" d="M487.041,136.027l-0.835,3.826h0.062c0.646-1.201,1.438-2.177,2.382-2.929
		c0.94-0.748,2.149-1.12,3.632-1.12h0.545c0.105,0,0.204,0,0.29,0c0.084,0,0.168,0.008,0.258,0.028l-0.449,2.022
		c-0.191,0-0.388-0.006-0.579-0.015c-0.191-0.01-0.386-0.018-0.58-0.018c-0.896,0.021-1.693,0.202-2.396,0.547
		c-0.692,0.345-1.298,0.797-1.814,1.366c-0.514,0.564-0.937,1.217-1.268,1.943c-0.334,0.729-0.584,1.478-0.755,2.25l-1.865,8.678
		h-1.993l3.536-16.584h1.831L487.041,136.027L487.041,136.027z"/>
	<path fill="#2B388F" d="M498.676,129.665l-3.087,14.397l0.063,0.062l9.707-8.099h2.696l-7.842,6.394l5.016,10.188h-2.218
		l-4.401-8.967l-3.534,2.957l-1.288,6.01h-1.992l4.854-22.945h2.023L498.676,129.665L498.676,129.665z"/>
</g>
<g>
	<path fill="#FFFFFF" d="M83.325,53.583c0.083,8.163-6.469,14.85-14.631,14.93c-8.163,0.083-14.849-6.469-14.928-14.631
		c-0.085-8.165,6.467-14.847,14.63-14.931C76.559,38.868,83.244,45.419,83.325,53.583z"/>
	<g>
		<path fill="#FFFFFF" d="M42.256,113.624c-4.784,0-6.741-3.39-4.349-7.532l26.48-45.862c2.392-4.143,6.306-4.143,8.698,0
			l26.478,45.861c2.392,4.144,0.435,7.532-4.349,7.532L42.256,113.624L42.256,113.624z"/>
	</g>
</g>
<g>
	<circle fill="#1B75BB" cx="69.083" cy="78.198" r="7.001"/>
	<g>
		<path fill="#1B75BB" d="M61.212,106.559c-4.784,0-6.741-3.391-4.349-7.533l7.96-13.785c2.392-4.145,6.306-4.145,8.698,0
			l7.959,13.785c2.392,4.145,0.435,7.533-4.349,7.533H61.212z"/>
	</g>
</g>
</svg>
